<svg xmlns="http://www.w3.org/2000/svg" viewBox="0 0 511.998 511.998"><circle cx="255.999" cy="255.999" r="255.999" fill="#21d0c3"/><ellipse cx="255.999" cy="421.645" rx="182.283" ry="14.369" fill="#15bdb2"/><path d="M65.98 67.221h380.036c12.486 0 22.702 10.217 22.702 22.702v234.106H43.279V89.922c0-12.486 10.215-22.701 22.701-22.701z" fill="#666"/><path d="M58.695 308.616h394.608V89.925c0-3.977-3.31-7.287-7.285-7.287H65.982c-3.977 0-7.285 3.31-7.285 7.287v218.692h-.002v-.001z" fill="#dce3db"/><g fill="#fff"><path d="M468.717 324.031v24.826c0 12.489-11.26 22.702-25.025 22.702H68.304c-13.765 0-25.025-10.213-25.025-22.702v-24.826h425.438zM141.238 115.527H404.929c4.141 0 7.527 3.388 7.527 7.527v185.562H99.544l-.002-140.766v-44.795c0-4.141 3.386-7.527 7.527-7.527h34.169z"/></g><path d="M107.071 115.527h297.857c4.141 0 7.527 3.386 7.527 7.527v15.053H99.544v-15.053c0-4.14 3.387-7.527 7.527-7.527z" fill="#828282"/><path d="M189.3 123.326h163.622c1.114 0 2.022.913 2.022 2.022v3.753c0 1.111-.91 2.022-2.022 2.022H189.3a2.027 2.027 0 0 1-2.02-2.022v-3.753a2.024 2.024 0 0 1 2.02-2.022z" fill="#fff"/><path d="M117.333 121.983a4.334 4.334 0 1 1 0 8.668 4.333 4.333 0 1 1 0-8.668z" fill="#21d0c3"/><path d="M134.441 121.983a4.332 4.332 0 0 1 4.335 4.335 4.332 4.332 0 0 1-4.335 4.333 4.332 4.332 0 0 1-4.333-4.333 4.333 4.333 0 0 1 4.333-4.335z" fill="#fad24d"/><path d="M151.552 121.983a4.334 4.334 0 1 1 0 8.668 4.333 4.333 0 1 1 0-8.668z" fill="#ff5b62"/><g fill="#ed4c54"><path d="M373.699 160.915h7.146v109.206h-7.146zM387.991 160.915h7.146v109.206h-7.146z"/></g><path d="M384.43 297.359l10.707-27.235h-21.438l10.731 27.235z" fill="#ffba1b"/><path fill="#ff5b62" d="M377.272 160.915h14.29v109.206h-14.29z"/><path fill="#fff" d="M373.699 157.462h21.438v3.448h-21.438z"/><path d="M379.816 145.229h9.203c3.364 0 6.116 2.752 6.116 6.116v6.118h-21.438v-6.118c0-3.362 2.752-6.116 6.116-6.116h.003z" fill="#21d0c3"/><path d="M383.99 299.639h.893l3.565-12.177h-7.994l3.536 12.177z" fill="#828282"/><path d="M131.252 152.397h221.435v59.355H131.252v-59.355zm14.555 70.768h192.327v4.566H145.807v-4.566zm0 59.353h87.848v4.566h-87.848v-4.566zm0-14.839h192.327v4.566H145.807v-4.566zm0-14.839h160.098v4.566H145.807v-4.566zm0-14.838h192.327v4.566H145.807v-4.566z" fill="#ecf0f1"/><path d="M305.065 407.272l36.095 11.566H170.836l29.124-11.566V371.56h105.105v35.712z" fill="#c2c2c4"/><path d="M305.065 407.272L199.96 371.56h105.105v35.712z" fill="#b6b6b8"/><path d="M199.96 407.272h105.105l36.095 11.566v4.981H170.836v-4.981l29.124-11.566z" fill="#ecf0f1"/><circle cx="255.999" cy="347.799" r="7.816" fill="#b6b6b8"/></svg>