<svg xmlns="http://www.w3.org/2000/svg" viewBox="0 0 58 58"><path fill="#ecf0f1" d="M0 0h58v58H0z"/><path fill="#546a79" d="M0 0h58v12H0z"/><circle cx="6" cy="6" r="3" fill="#ed7161"/><circle cx="15" cy="6" r="3" fill="#f0c419"/><circle cx="24" cy="6" r="3" fill="#4fba6f"/><path fill="#8697cb" d="M0 12v19h6v-6h12v6h5v-6h12v6h5v-6h12v6h6V12z"/><path d="M17 44H7a1 1 0 1 1 0-2h10a1 1 0 1 1 0 2zM17 48H7a1 1 0 1 1 0-2h10a1 1 0 1 1 0 2zM17 52H7a1 1 0 1 1 0-2h10a1 1 0 1 1 0 2zM34 44H24a1 1 0 1 1 0-2h10a1 1 0 1 1 0 2zM34 48H24a1 1 0 1 1 0-2h10a1 1 0 1 1 0 2zM34 52H24a1 1 0 1 1 0-2h10a1 1 0 1 1 0 2zM51 44H41a1 1 0 1 1 0-2h10a1 1 0 1 1 0 2zM51 48H41a1 1 0 1 1 0-2h10a1 1 0 1 1 0 2zM51 52H41a1 1 0 1 1 0-2h10a1 1 0 1 1 0 2z" fill="#bdc3c7"/><path fill="#67b9cc" d="M6 25h12v12H6zM40 25h12v12H40zM23 25h12v12H23z"/></svg>