<svg xmlns="http://www.w3.org/2000/svg" viewBox="0 0 512 512"><path d="M512 317.793H0V48.552c0-17.064 13.833-30.897 30.897-30.897h450.207c17.064 0 30.897 13.833 30.897 30.897v269.241z" fill="#38454f"/><path d="M361.931 494.345H150.069c0-19.5 15.81-35.31 35.31-35.31H326.62c19.501-.001 35.311 15.81 35.311 35.31" fill="#e8edee"/><path fill="#b0b6bb" d="M317.793 459.034H194.207l17.655-70.62h88.276z"/><path d="M481.103 388.414H30.897C13.833 388.414 0 374.581 0 357.517v-39.724h512v39.724c0 17.064-13.833 30.897-30.897 30.897" fill="#e8edee"/><g fill="#25ae88"><path d="M291.31 291.31a8.826 8.826 0 0 1-8.828-8.828V256a8.826 8.826 0 0 1 8.828-8.828 8.826 8.826 0 0 1 8.828 8.828v26.483a8.825 8.825 0 0 1-8.828 8.827M326.621 291.31a8.826 8.826 0 0 1-8.828-8.828V220.69a8.826 8.826 0 0 1 8.828-8.828 8.826 8.826 0 0 1 8.828 8.828v61.793a8.826 8.826 0 0 1-8.828 8.827M361.931 291.31a8.826 8.826 0 0 1-8.828-8.828v-44.138a8.826 8.826 0 0 1 8.828-8.828 8.826 8.826 0 0 1 8.828 8.828v44.138a8.825 8.825 0 0 1-8.828 8.828M397.241 291.31a8.826 8.826 0 0 1-8.828-8.828v-105.93a8.826 8.826 0 0 1 8.828-8.828 8.826 8.826 0 0 1 8.828 8.828v105.931a8.825 8.825 0 0 1-8.828 8.827M432.552 291.31a8.826 8.826 0 0 1-8.828-8.828v-70.621a8.826 8.826 0 0 1 8.828-8.828 8.826 8.826 0 0 1 8.828 8.828v70.621a8.826 8.826 0 0 1-8.828 8.828"/></g><path d="M238.345 163.31c0 51.191-41.498 92.69-92.69 92.69s-92.69-41.498-92.69-92.69 41.498-92.69 92.69-92.69 92.69 41.499 92.69 92.69" fill="#dd691d"/><path d="M141.362 70.718c-.044.044-.071.079-.124.124v96.556c0 .185.15.327.327.327h96.556c.044-.044.079-.071.124-.124 2.463-54.581-42.302-99.346-96.883-96.883" fill="#ecba16"/><g fill="#dd691d"><path d="M388.414 114.759h-70.621a8.826 8.826 0 0 1-8.828-8.828 8.826 8.826 0 0 1 8.828-8.828h70.621a8.826 8.826 0 0 1 8.828 8.828 8.827 8.827 0 0 1-8.828 8.828M432.552 114.759c-2.295 0-4.599-.971-6.268-2.56-.353-.441-.794-.883-1.059-1.324a6.665 6.665 0 0 1-.794-1.589 5.63 5.63 0 0 1-.53-1.589c-.088-.618-.177-1.236-.177-1.766s.088-1.148.177-1.766c.088-.53.265-1.059.53-1.589.177-.53.441-1.059.794-1.589.265-.441.706-.883 1.059-1.324 3.266-3.266 9.181-3.266 12.535 0 1.589 1.677 2.56 3.884 2.56 6.268 0 2.383-.971 4.59-2.56 6.268-1.677 1.589-3.972 2.56-6.267 2.56M432.552 70.621h-26.483c-4.882 0-8.828-3.955-8.828-8.828s3.946-8.828 8.828-8.828h26.483c4.882 0 8.828 3.955 8.828 8.828s-3.947 8.828-8.828 8.828M335.448 70.621h-17.655c-4.882 0-8.828-3.955-8.828-8.828s3.946-8.828 8.828-8.828h17.655c4.882 0 8.828 3.955 8.828 8.828s-3.946 8.828-8.828 8.828M370.759 70.621c-2.295 0-4.599-.971-6.268-2.56-1.598-1.677-2.56-3.972-2.56-6.268 0-2.295.962-4.59 2.56-6.268.883-.794 1.766-1.412 2.913-1.854 3.266-1.412 7.15-.618 9.622 1.854 1.589 1.677 2.56 3.972 2.56 6.268 0 2.295-.971 4.59-2.56 6.268-1.677 1.589-3.972 2.56-6.267 2.56"/></g></svg>