<svg xmlns="http://www.w3.org/2000/svg" viewBox="0 0 509.287 509.287"><circle cx="254.644" cy="254.644" r="254.644" fill="#6eb1e1"/><path fill="#dededf" d="M299.062 168.858l-71.205-71.544-71.544 71.544z"/><path fill="#f1f3f7" d="M437.743 168.858l-95.279-94.94-94.941 94.94z"/><path fill="#fcfcfd" d="M396.037 296.011l-23.057-11.19 45.436-94.94H116.98v-25.092h341.786z"/><circle cx="349.584" cy="400.445" r="34.925" fill="#4f5565"/><circle cx="349.584" cy="400.445" r="17.293" fill="#f1f3f7"/><circle cx="223.11" cy="400.445" r="34.925" fill="#4f5565"/><circle cx="223.11" cy="400.445" r="17.293" fill="#f1f3f7"/><g fill="#4f5565"><path d="M362.469 227.857h-171.91c-7.121 0-12.546-5.764-12.546-12.546 0-7.121 5.764-12.546 12.546-12.546h171.91c7.121 0 12.546 5.764 12.546 12.546 0 7.121-5.765 12.546-12.546 12.546zM349.584 266.511H203.783c-7.121 0-12.546-5.764-12.546-12.546 0-6.781 5.764-12.546 12.546-12.546h145.801c7.121 0 12.546 5.764 12.546 12.546 0 6.782-5.764 12.546-12.546 12.546z"/></g><path d="M29.499 85.107c-7.121 0-12.546 5.764-12.546 12.546-.339 7.121 5.425 12.885 12.546 12.885H65.78v-25.43H29.499z" fill="#f0582f"/><path d="M389.256 277.701H178.352L91.211 92.228c-2.034-4.408-6.442-7.46-11.528-7.46H65.78v25.77h5.764l87.142 185.473c2.034 4.408 6.442 7.46 11.528 7.46h219.041c8.138 0 14.58 6.442 14.58 14.58s-6.442 14.58-14.58 14.58H171.91c-7.121 0-12.546 5.764-12.546 12.546 0 7.121 5.764 12.546 12.546 12.546h217.346c22.04 0 40.011-17.971 40.011-40.011-.001-22.04-17.972-40.011-40.011-40.011z" fill="#fcfcfd"/></svg>