<svg xmlns="http://www.w3.org/2000/svg" viewBox="0 0 512 512"><g fill="#55ceed"><circle cx="256" cy="256" r="256"/><circle cx="256" cy="256" r="256"/></g><g fill="#474f70"><path d="M503.557 60.05v261.381c-7.555 28.693-19.978 55.411-36.321 79.224H44.763a254.667 254.667 0 0 1-33.938-70.781V60.05c0-17 13.782-30.793 30.783-30.793h431.167c17 0 30.782 13.793 30.782 30.793z"/><path d="M503.557 298.297v23.134c-7.555 28.693-19.978 55.411-36.321 79.224H44.763a254.667 254.667 0 0 1-33.938-70.781v-31.577h492.732z"/></g><path d="M490.854 60.488v275.299c0 10.041-6.604 18.192-14.743 18.192H38.278c-8.15 0-14.744-8.15-14.744-18.192V60.488c0-10.052 6.593-18.192 14.744-18.192h437.833c8.14 0 14.743 8.14 14.743 18.192z" fill="#fff"/><path d="M261.457 382.052c-6.16 0-11.152-4.993-11.152-11.152 0-1.761.41-3.424 1.136-4.905a11.15 11.15 0 0 0-6.247 10.016c0 6.16 4.994 11.152 11.152 11.152a11.15 11.15 0 0 0 10.016-6.247 11.089 11.089 0 0 1-4.905 1.136z" fill="#323b5b"/><path fill="#474f70" d="M160.413 400.656H353.97v75.797H160.413z"/><path fill="#323b5b" d="M160.413 400.656H353.97v20.27H160.413z"/><path d="M398.764 468.522a252.201 252.201 0 0 1-16.687 10.324H129.923a257.088 257.088 0 0 1-15.057-9.226c10.136-15.287 27.376-24.785 46.174-24.785h192.303a55.355 55.355 0 0 1 30.689 9.279 55.486 55.486 0 0 1 14.732 14.408z" fill="#535e8a"/><path d="M490.854 60.488V97.77H23.534V60.488c0-10.052 6.593-18.192 14.744-18.192h437.833c8.14 0 14.743 8.14 14.743 18.192z" fill="#c2c2c2"/><circle cx="58.514" cy="70.029" r="11.494" fill="#ff4f6f"/><circle cx="91.429" cy="70.029" r="11.494" fill="#fcc72e"/><circle cx="124.343" cy="70.029" r="11.494" fill="#5cc693"/><path d="M174.346 180.894c0 20.786-9.218 39.425-23.79 52.042-12.065 10.451-27.803 16.766-45.018 16.766-16.467 0-31.577-5.784-43.425-15.431-15.492-12.617-25.385-31.843-25.385-53.378 0-38.002 30.807-68.809 68.809-68.809s68.809 30.808 68.809 68.81z" fill="#474f70"/><path d="M150.999 227.186c0 1.955-.149 3.877-.443 5.75-12.065 10.451-27.803 16.766-45.018 16.766-16.467 0-31.577-5.784-43.425-15.431a36.851 36.851 0 0 1-.681-7.085 7.55 7.55 0 0 1 1.131-3.985 7.57 7.57 0 0 1 3.046-2.807l11.268-5.723a62.169 62.169 0 0 1 20.288-6.241l5.273-.681 3.781-.484 2.732.354 1.015.13.027.007 5.273.674c1.614.205 3.209.47 4.796.804a62.03 62.03 0 0 1 15.492 5.437l11.275 5.723a7.619 7.619 0 0 1 4.17 6.792z" fill="#ff4f6f"/><g fill="#eab689"><path d="M120.065 194.802v14.875c0 7.648-6.199 13.847-13.847 13.847s-13.847-6.199-13.847-13.847v-14.875h27.694z"/><circle cx="76.319" cy="170.465" r="8.559"/><circle cx="136.108" cy="170.465" r="8.559"/></g><path d="M137.05 146.037l-61.665-3.283v34.397c0 17.029 13.804 30.832 30.832 30.832 17.029 0 30.832-13.804 30.832-30.832v-31.114h.001z" fill="#fecd9c"/><path d="M93.486 177.151v-33.433l-18.101-.963v34.397c0 17.029 13.804 30.832 30.833 30.832 3.149 0 6.188-.475 9.05-1.353-12.612-3.868-21.782-15.602-21.782-29.48z" fill="#eab689"/><path d="M140.801 144.886v15.531a4.555 4.555 0 0 1-1.339 3.233 4.556 4.556 0 0 1-3.337 1.339c-2.499-.056-4.468-2.163-4.468-4.663v-2.348a6.71 6.71 0 0 0-1.973-4.762 6.713 6.713 0 0 0-4.762-1.973c-2.902 0-5.724.974-7.986 2.793a17.052 17.052 0 0 1-10.721 3.772 17.043 17.043 0 0 1-10.719-3.772 12.364 12.364 0 0 0-1.227-.87 12.606 12.606 0 0 0-2.527-1.208 12.912 12.912 0 0 0-4.236-.715 6.736 6.736 0 0 0-6.731 6.738v2.439a4.556 4.556 0 0 1-1.34 3.233 4.57 4.57 0 0 1-7.803-3.233v-15.532c0-13.599 11.024-24.625 24.623-24.625h19.918c13.602-.003 24.628 11.022 24.628 24.623z" fill="#c97333"/><path d="M92.022 144.886c0-13.521 10.897-24.492 24.389-24.619-.078-.001-.156-.006-.235-.006H96.258c-13.599 0-24.623 11.025-24.623 24.625v15.531a4.57 4.57 0 0 0 7.803 3.233 4.554 4.554 0 0 0 1.34-3.233v-2.439a6.736 6.736 0 0 1 6.731-6.738c1.452 0 2.883.243 4.236.715.094.033.184.079.277.114v-7.183z" fill="#ba6328"/><path fill="#c2c2c2" d="M43.886 263.596h123.298v90.384H43.886z"/><path fill="#bfbfbf" d="M43.886 263.596h123.298v28.212H43.886z"/><g fill="#c2c2c2"><path d="M202.71 123.58h267.494v119.118H202.71zM202.71 262.123h267.494v91.857H202.71z"/></g><g fill="#bfbfbf"><path d="M202.71 123.58h267.494v28.212H202.71zM202.71 263.596h267.494v28.212H202.71z"/></g><g fill="#535e8a"><path d="M347.954 180.004H226.746a8.36 8.36 0 0 1 0-16.718h121.208a8.36 8.36 0 0 1 8.359 8.359 8.358 8.358 0 0 1-8.359 8.359zM347.954 319.21H226.746a8.36 8.36 0 0 1 0-16.718h121.208a8.36 8.36 0 0 1 8.359 8.359 8.358 8.358 0 0 1-8.359 8.359zM140.019 319.21H71.056a8.36 8.36 0 0 1 0-16.718h68.963a8.36 8.36 0 0 1 8.359 8.359 8.357 8.357 0 0 1-8.359 8.359zM140.019 344.954H71.056a8.36 8.36 0 0 1 0-16.718h68.963a8.36 8.36 0 0 1 8.359 8.359 8.358 8.358 0 0 1-8.359 8.359zM397.064 204.654H226.746a8.36 8.36 0 0 1 0-16.718h170.318a8.36 8.36 0 0 1 8.359 8.359 8.358 8.358 0 0 1-8.359 8.359zM397.064 345.738H226.746a8.36 8.36 0 0 1 0-16.718h170.318a8.36 8.36 0 0 1 8.359 8.359 8.358 8.358 0 0 1-8.359 8.359z"/></g></svg>