<svg viewBox="0 0 48 48" xmlns="http://www.w3.org/2000/svg"><g fill="#4aa0ec"><path d="M37.433 30.324a.914.914 0 0 0-1.266.243l-1.144 1.68V18.492c0-3.664-2.995-6.647-6.659-6.647h-9.726a.912.912 0 0 0-.913.913c0 .511.402.913.913.913h9.726c2.666 0 4.833 2.167 4.833 4.82v13.78l-1.145-1.704a.931.931 0 0 0-1.278-.243.931.931 0 0 0-.243 1.278l2.812 4.151c.17.244.462.402.755.402a.951.951 0 0 0 .766-.402l2.812-4.15a.931.931 0 0 0-.243-1.28zM29.362 34.329h-9.714c-2.678 0-4.845-2.167-4.845-4.82V15.715l1.157 1.717c.28.413.84.523 1.266.243a.931.931 0 0 0 .243-1.278l-2.812-4.151c-.34-.5-1.18-.5-1.51 0l-2.823 4.15a.931.931 0 0 0 .243 1.279c.158.097.34.158.511.158a.936.936 0 0 0 .767-.401l1.132-1.68v13.755c0 3.664 2.995 6.647 6.671 6.647h9.714a.912.912 0 0 0 .913-.913.904.904 0 0 0-.913-.913z"/></g></svg>