<svg height="512" width="512" xmlns="http://www.w3.org/2000/svg"><path fill="#5B4386" d="M0 512h512V0H0v512"/><path d="M109.399 141.799h7.182c2.425 0 4.135-.39 5.129-1.171.993-.781 1.49-1.835 1.49-3.159 0-1.225-.492-2.209-1.478-2.953-.984-.743-2.707-1.115-5.169-1.115h-7.154v8.398m0-16.799h6.123c2.2 0 3.729-.314 4.588-.947.86-.631 1.289-1.54 1.289-2.728 0-1.106-.429-1.972-1.289-2.592-.858-.623-2.356-.935-4.495-.935h-6.216V125zM96.2 108.799h25.302c4.22 0 7.458.998 9.714 2.992 2.255 1.993 3.384 4.462 3.384 7.407 0 2.467-.803 4.583-2.41 6.346-1.069 1.183-2.635 2.113-4.696 2.793 3.057.771 5.304 2.091 6.744 3.963 1.441 1.872 2.161 4.222 2.161 7.054 0 2.307-.521 4.377-1.568 6.215a11.728 11.728 0 0 1-4.309 4.368c-1.125.67-2.825 1.155-5.101 1.455-3.024.405-5.031.608-6.019.608H96.2v-43.201zM153.2 136.381c0 2.868.542 4.988 1.626 6.361 1.084 1.372 2.448 2.057 4.092 2.057 1.656 0 3.018-.676 4.083-2.028 1.065-1.354 1.599-3.523 1.599-6.511 0-2.781-.538-4.854-1.613-6.216-1.075-1.363-2.403-2.044-3.985-2.044-1.681 0-3.067.689-4.163 2.073-1.092 1.379-1.639 3.483-1.639 6.308m-12 .103c0-4.724 1.585-8.619 4.757-11.686 3.172-3.065 7.459-4.598 12.858-4.598 6.169 0 10.832 1.799 13.988 5.398 2.53 2.9 3.798 6.474 3.798 10.716 0 4.764-1.572 8.667-4.716 11.713-3.144 3.048-7.491 4.571-13.041 4.571-4.956 0-8.962-1.265-12.018-3.798-3.751-3.128-5.626-7.235-5.626-12.316zM193.399 136.381c0 2.868.543 4.988 1.627 6.361 1.084 1.372 2.448 2.057 4.092 2.057 1.658 0 3.017-.676 4.083-2.028 1.067-1.354 1.598-3.523 1.598-6.511 0-2.781-.537-4.854-1.612-6.216-1.076-1.363-2.404-2.044-3.985-2.044-1.68 0-3.068.689-4.162 2.073-1.093 1.379-1.641 3.483-1.641 6.308m-12 .103c0-4.724 1.588-8.619 4.759-11.686 3.172-3.065 7.457-4.598 12.857-4.598 6.169 0 10.83 1.799 13.986 5.398 2.532 2.9 3.797 6.474 3.797 10.716 0 4.764-1.572 8.667-4.716 11.713-3.143 3.048-7.491 4.571-13.04 4.571-4.957 0-8.963-1.265-12.019-3.798-3.747-3.128-5.624-7.235-5.624-12.316zM237.201 108.799v12h6.599v9h-6.599v11.29c0 1.355.131 2.251.394 2.69.399.681 1.102 1.02 2.109 1.02.906 0 2.172-.258 3.797-.777l.899 7.688c-2.988.592-5.778.89-8.371.89-3.008 0-5.224-.374-6.647-1.126-1.426-.748-2.479-1.891-3.159-3.426-.683-1.533-1.022-4.014-1.022-7.439v-10.81H221v-9h4.2v-5.793l12.001-6.207M247.399 143.6l12.001-1.2c.425 1.287 1.021 2.208 1.79 2.765.769.556 1.792.835 3.064.835 1.401 0 2.485-.335 3.255-1.002.594-.495.891-1.109.891-1.85 0-.836-.244-1.483-.732-1.939-.35-.325-1.913-.725-4.686-1.199-4.15-.708-7.034-1.366-8.645-1.983-1.613-.615-2.973-1.654-4.08-3.118-1.104-1.462-1.657-3.127-1.657-4.997 0-2.049.593-3.813 1.781-5.294 1.186-1.482 2.822-2.589 4.902-3.32s4.875-1.096 8.381-1.096c3.699 0 6.432.284 8.194.855 1.762.574 3.232 1.462 4.406 2.663 1.175 1.204 2.154 2.83 2.936 4.88l-12.001 1.199c-.264-.955-.7-1.655-1.313-2.099-.839-.601-1.849-.901-3.028-.901-1.206 0-2.085.235-2.635.699-.551.466-.824 1.033-.824 1.703 0 .735.372 1.296 1.115 1.678.736.381 2.415.724 5.034 1.029 3.977.438 6.929 1.052 8.864 1.839 1.935.786 3.415 1.914 4.442 3.379 1.029 1.465 1.544 3.075 1.544 4.824 0 1.768-.54 3.49-1.623 5.166-1.082 1.675-2.785 3.007-5.113 3.999-2.328.989-5.498 1.484-9.511 1.484-5.677 0-9.716-.78-12.122-2.345-2.404-1.562-3.948-3.78-4.63-6.654M300.201 108.799v12h6.598v9h-6.598v11.29c0 1.355.131 2.251.393 2.69.4.681 1.101 1.02 2.109 1.02.906 0 2.172-.258 3.797-.777l.9 7.688c-2.989.592-5.779.89-8.372.89-3.007 0-5.224-.374-6.647-1.126-1.425-.748-2.479-1.891-3.157-3.426-.685-1.533-1.022-4.014-1.022-7.439v-10.81H284v-9h4.201v-5.793l12-6.207M312.201 120.799h11.174v5.363c1.081-2.269 2.197-3.828 3.348-4.684 1.15-.853 2.572-1.277 4.266-1.277 1.768 0 3.706.527 5.811 1.583l-3.72 8.879c-1.419-.574-2.542-.864-3.367-.864-1.568 0-2.788.636-3.655 1.904-1.238 1.787-1.855 5.131-1.855 10.031V152h-12v-31.201M361.1 137.6a53.832 53.832 0 0 1-4.874 1.474c-2.307.612-3.765 1.215-4.379 1.809-.631.61-.946 1.309-.946 2.09 0 .889.312 1.613.934 2.18.621.565 1.535.849 2.742.849a7.071 7.071 0 0 0 3.529-.919c1.085-.612 1.855-1.36 2.312-2.241.456-.88.683-2.025.683-3.431V137.6m-9.001-6l-12-1.199c.427-2.118 1.038-3.789 1.837-5.007.802-1.219 1.954-2.274 3.461-3.168 1.081-.645 2.566-1.143 4.457-1.496s3.937-.528 6.136-.528c3.534 0 6.369.199 8.513.598 2.144.402 3.93 1.235 5.354 2.503 1.006.884 1.798 2.128 2.376 3.737.577 1.609.867 3.146.867 4.607v13.734c0 1.463.093 2.609.277 3.44.185.832.589 1.891 1.214 3.179h-11.475c-.463-.813-.765-1.432-.904-1.856-.142-.426-.28-1.094-.418-2.006-1.53 1.487-3.052 2.55-4.566 3.188-2.067.85-4.472 1.274-7.21 1.274-3.637 0-6.398-.839-8.285-2.521-1.889-1.682-2.832-3.754-2.832-6.217 0-2.313.678-4.214 2.034-5.7 1.355-1.492 3.862-2.603 7.519-3.328 4.374-.874 7.213-1.488 8.513-1.842 1.3-.354 2.678-.817 4.134-1.393 0-1.33-.263-2.264-.792-2.798-.527-.535-1.453-.802-2.779-.802-1.701 0-2.975.308-3.825.919-.665.476-1.199 1.37-1.606 2.682zM392.216 136.578c0 2.786.513 4.855 1.537 6.202 1.025 1.346 2.323 2.019 3.891 2.019 1.383 0 2.536-.646 3.465-1.938.928-1.295 1.393-3.485 1.393-6.572 0-2.851-.485-4.945-1.455-6.282-.967-1.336-2.15-2.006-3.543-2.006-1.513 0-2.772.673-3.778 2.021-1.008 1.345-1.51 3.532-1.51 6.556M380.3 164v-43.201h11.128v4.107c1.544-1.719 2.961-2.88 4.247-3.486 1.736-.813 3.659-1.219 5.766-1.219 4.155 0 7.372 1.584 9.646 4.757 2.276 3.173 3.415 7.092 3.415 11.76 0 5.157-1.241 9.092-3.719 11.809-2.477 2.716-5.614 4.073-9.407 4.073-1.831 0-3.502-.272-5.016-.819a12.132 12.132 0 0 1-4.06-2.443V164h-12z" fill="#FFF"/><path d="M512 364.931C473.734 325.406 315 192 315 192l-148-11v219l130 112h215V364.931" fill="#010101" opacity=".191"/><path d="M208.057 305.562v57.87h42.666c16.622 0 27.167-.444 31.629-1.333 6.866-1.175 12.453-4.054 16.762-8.638s6.465-10.716 6.465-18.393c0-6.475-1.661-11.977-4.987-16.515-3.324-4.536-8.128-7.837-14.405-9.899-6.279-2.061-19.918-3.093-40.911-3.093h-37.219m0-88.326v51.777h30.06c17.884 0 28.998-.252 33.337-.76 7.852-.921 14.021-3.594 18.518-8.021 4.495-4.425 6.74-10.256 6.74-17.487 0-6.918-1.938-12.542-5.817-16.871-3.879-4.331-9.637-6.957-17.27-7.876-4.556-.509-17.624-.763-39.203-.763h-26.365zm-41.372-36.547h86.901c17.176 0 29.997.729 38.463 2.189 8.464 1.459 16.029 4.504 22.692 9.136 6.667 4.634 12.222 10.812 16.669 18.537 4.449 7.725 6.672 16.377 6.672 25.96 0 10.374-2.569 19.894-7.711 28.554-5.141 8.661-12.112 15.164-20.916 19.513 12.035 3.839 21.295 10.406 27.773 19.701 6.48 9.295 9.72 20.209 9.72 32.74 0 9.867-2.277 19.473-6.833 28.816-4.557 9.344-10.775 16.8-18.655 22.367-7.88 5.568-17.591 9.002-29.136 10.303-7.233.793-24.702 1.285-52.408 1.475h-73.232V180.688z" fill="#FFF"/></svg>