<svg height="512" width="512" xmlns="http://www.w3.org/2000/svg"><path fill="#1073BB" d="M0 512h512V0H0v512"/><path d="M218.381 135.438l12.765 3.957c-.881 3.717-2.267 6.821-4.156 9.316-1.89 2.496-4.237 4.379-7.039 5.648-2.803 1.271-6.371 1.906-10.703 1.906-5.256 0-9.549-.761-12.88-2.278-3.332-1.52-6.205-4.191-8.624-8.017-2.417-3.823-3.627-8.717-3.627-14.679 0-7.952 2.116-14.063 6.352-18.336 4.233-4.272 10.226-6.407 17.972-6.407 6.067 0 10.835 1.247 14.303 3.742 3.467 2.494 6.045 6.324 7.731 11.49l-13.437 2.907c-.455-1.456-.93-2.52-1.428-3.191-.826-1.133-1.834-2.006-3.028-2.614-1.193-.609-2.525-.912-3.995-.912-3.337 0-5.896 1.325-7.673 3.977-1.344 1.969-2.016 5.057-2.016 9.271 0 5.214.835 8.787 2.51 10.723 1.672 1.936 4.019 2.902 7.043 2.902 2.939 0 5.16-.803 6.66-2.408 1.501-1.606 2.592-3.939 3.27-6.997M235.177 139.669l14.78-.872c.288 2.269.873 3.994 1.754 5.178 1.435 1.922 3.484 2.885 6.151 2.885 1.989 0 3.519-.503 4.593-1.506 1.073-1.004 1.611-2.169 1.611-3.491 0-1.252-.475-2.375-1.428-3.368-.959-.994-3.418-1.934-7.381-2.814-6.486-1.477-11.112-3.424-13.876-5.847-2.793-2.422-4.188-5.506-4.188-9.25 0-2.471.719-4.799 2.152-6.989 1.435-2.19 3.593-3.913 6.471-5.167 2.88-1.251 6.831-1.877 11.849-1.877 6.151 0 10.841 1.159 14.07 3.479 3.231 2.321 5.153 6.014 5.77 11.081l-14.781.892c-.321-2.344-.996-4.051-2.02-5.117-1.025-1.069-2.442-1.602-4.248-1.602-1.484 0-2.602.369-3.353 1.108a3.631 3.631 0 0 0-1.129 2.692c0 .771.175 1.467.525 2.089.336.638 1.811 1.231 4.428 1.785 6.468 1.408 11.102 2.828 13.901 4.268 2.799 1.438 4.834 3.223 6.109 5.354 1.273 2.132 1.909 4.516 1.909 7.153 0 3.095-.853 5.947-2.562 8.561-1.707 2.614-4.093 4.598-7.157 5.948-3.066 1.352-6.93 2.026-11.592 2.026-8.187 0-13.858-1.563-17.01-4.688-3.152-3.126-4.934-7.096-5.348-11.911M283.551 139.669l14.779-.872c.287 2.269.871 3.994 1.753 5.178 1.435 1.922 3.485 2.885 6.15 2.885 1.988 0 3.52-.503 4.595-1.506 1.073-1.004 1.613-2.169 1.613-3.491 0-1.252-.478-2.375-1.429-3.368-.959-.994-3.421-1.934-7.38-2.814-6.489-1.477-11.115-3.424-13.88-5.847-2.792-2.422-4.188-5.506-4.188-9.25 0-2.471.718-4.799 2.153-6.989 1.433-2.19 3.593-3.913 6.473-5.167 2.878-1.251 6.828-1.877 11.846-1.877 6.151 0 10.842 1.159 14.072 3.479 3.229 2.321 5.151 6.014 5.769 11.081l-14.781.892c-.322-2.344-.996-4.051-2.021-5.117-1.026-1.069-2.439-1.602-4.247-1.602-1.482 0-2.602.369-3.354 1.108-.751.74-1.128 1.636-1.128 2.692 0 .771.175 1.467.523 2.089.337.638 1.815 1.231 4.433 1.785 6.467 1.408 11.099 2.828 13.899 4.268 2.798 1.438 4.832 3.223 6.109 5.354 1.272 2.132 1.909 4.516 1.909 7.153 0 3.095-.854 5.947-2.561 8.561-1.709 2.614-4.095 4.598-7.16 5.948-3.065 1.352-6.929 2.026-11.591 2.026-8.188 0-13.855-1.563-17.011-4.688-3.152-3.126-4.932-7.096-5.345-11.911" fill="#FFF"/><path d="M512 364.932C473.733 325.406 374 174 374 174H171l-35 178 161 160h215V364.932" fill="#010101" opacity=".191"/><path fill="#FFF" d="M171.46 174l-7.989 39.946h162.593l-5.075 25.803H158.288l-7.881 39.946H313l-9.068 45.563-65.535 21.7-56.788-21.7 3.887-19.758H145.55l-9.502 47.936 93.929 35.953 108.288-35.953 14.359-72.121 2.915-14.465L374 174H171.46"/></svg>