<svg xmlns="http://www.w3.org/2000/svg" viewBox="0 0 512 512"><circle cx="256" cy="256" r="256" fill="#0575a5"/><path d="M511.306 273.894L392.105 154.706c-.085-.084-.164-.212-.251-.294l-.947-.95c-1.032-.906-2.358-1.408-3.799-1.408H152.612c-3.308 0-5.99 2.726-5.99 5.993V230.8h-18.716c-4.959 0-9.009 4.05-9.009 9.004v111.132c0 2.15.791 4.137 2.028 5.704.044 0 .044 0 .044.036l1.193 1.203c.051 0 .051.044.051.044l153.272 153.265c126.366-9.52 227.074-110.714 235.821-237.294z" fill="#025e90"/><path fill="#e1effa" d="M301.952 355.139h-64.233l8.154-39.701h47.915z"/><path fill="#b6d4ed" d="M301.952 355.139l-8.164-39.701h-47.915l39.705 39.701z"/><path fill="#f2f9ff" d="M220.518 355.149h98.621v4.813h-98.621z"/><path d="M152.586 152.054c-3.287 0-5.983 2.703-5.983 5.993v151.391c0 3.302 2.696 6.001 5.983 6.001h234.511c3.297 0 6.008-2.698 6.008-6.001V158.047c0-3.29-2.711-5.993-6.008-5.993H152.586z" fill="#34495e"/><path fill="#fff" d="M159.053 164.506h221.594v138.47H159.053z"/><path fill="#ff8e31" d="M168.274 172.262h61.304v18.373h-61.304z"/><g fill="#e1effa"><path d="M239.206 172.262h133.709v18.373H239.206zM166.81 275.917h206.08v6.075H166.81zM166.81 289.178h206.08v6.047H166.81z"/></g><g fill="#d0e070"><path d="M166.81 233.779h61.304v34.975H166.81zM239.206 233.779h61.299v34.975h-61.299zM311.578 233.779h61.312v34.975h-61.312z"/></g><path fill="#b8d1e6" d="M166.81 197.811h206.08v28.774H166.81z"/><path d="M272.179 315.443H152.576c-3.277 0-5.965-2.714-5.965-6.016v-81.229h12.442v74.775h100.659l12.467 12.47z" fill="#2e445c"/><path d="M259.712 302.976H159.053v-74.778h21.146c3.046 0 5.837 1.152 7.885 3.149.205.128.384.333.563.563l1.869 1.869H166.81v34.972h58.675l7.168 7.168H166.81v6.093h71.936l7.168 7.168H166.81v6.042h85.146l7.756 7.754z" fill="#e1effa"/><path fill="#b8d26e" d="M225.485 268.749H166.81v-34.97h23.705z"/><g fill="#c7e0f4"><path d="M238.746 282.01H166.81v-6.093h65.843zM251.955 295.219H166.81v-6.041h79.104z"/></g><path d="M127.898 359.949c-4.946 0-9.001-4.047-9.001-9.014v-111.15c0-4.951 4.055-9.011 9.001-9.011h52.283c4.941 0 9.001 4.058 9.001 9.011v111.153c0 4.964-4.06 9.014-9.001 9.014h-52.283v-.003z" fill="#34495e"/><g fill="#283a4d"><path d="M161.828 350.643c0 1.18-.95 2.15-2.145 2.15h-11.29a2.167 2.167 0 0 1-2.153-2.15v-.906c0-1.172.98-2.155 2.153-2.155h11.29c1.198 0 2.145.983 2.145 2.155v.906zM156.641 240.53a2.586 2.586 0 0 1-2.588 2.598 2.594 2.594 0 0 1-2.606-2.598 2.594 2.594 0 0 1 2.606-2.593 2.588 2.588 0 0 1 2.588 2.593z"/></g><path d="M155.259 240.53c0 .678-.527 1.221-1.208 1.221a1.226 1.226 0 0 1-1.231-1.221c0-.676.558-1.219 1.231-1.219.683 0 1.208.543 1.208 1.219z" fill="#5d6d7e"/><path fill="#fff" d="M124.006 250.317h60.083v90.138h-60.083z"/><path fill="#ff8e31" d="M128.64 254.925h50.847v7.772H128.64z"/><g fill="#e1effa"><path d="M128.64 327.654h50.847v2.547H128.64zM128.64 333.261h50.847v2.547H128.64z"/></g><path fill="#d0e070" d="M128.64 284.774h50.847v39.828H128.64z"/><path fill="#b8d1e6" d="M128.64 265.728h50.847v16.028H128.64z"/></svg>