<svg height="512" width="512" xmlns="http://www.w3.org/2000/svg"><path fill="#E44E25" d="M0 512h512V0H0v512"/><path d="M512 364.645c-38.58-39.604-160.309-189.301-160.309-189.301H155.086l17.793 194.729L315.395 512H512V364.645" opacity=".1"/><path fill="#FFF" d="M161.318 110.395h13.34v14.799h15.156v-14.799h13.338v42.623h-13.338v-17.167h-15.156v17.167h-13.34v-42.623M208.608 110.395h41.226v10.063H235.89v32.56h-13.338v-32.56h-13.944v-10.063M255.292 110.395h17.581l6.697 26.03 6.63-26.03h17.594v42.623H292.88v-32.317l-8.233 32.317h-10.126l-8.316-32.317v32.317h-10.913v-42.623M312.281 110.395h13.336v31.968h21.222v10.655h-34.558v-42.623M253.253 290.938h-87.608l-9.622-105.339-.937-10.255H351.186l-.935 10.255-1.784 19.379-.786 8.592h-149.81l3.578 39.144h142.669l-.956 10.265-9.198 100.635-.589 6.459-80.121 21.682v.006l-.182.05-80.193-21.738-5.483-60.02h39.299l2.788 30.486 43.599 11.496.036-.009v-.005l43.661-11.505 4.547-49.578h-48.073"/></svg>