<svg height="512" width="512" xmlns="http://www.w3.org/2000/svg"><path fill="#3558A8" d="M0 512h512V0H0v512"/><path fill="#010101" opacity=".102" d="M389.001 225h-294l-14 69 256 218h175V330l-123-105"/><path d="M319.774 228.355l.299 1.259c.084.362-.145.654-.514.654M295.801 226.195c-.074.348-.164.789-.226 1.081l-2.629 12.306 2.766-12.965.089-.422M217.02 234.431l-1.452 5.142 1.452-5.14v-.002" fill="#5DA3C2"/><path d="M388.68 219.797l-1.566-6.622c-1.235-4.793-4.735-7.059-12.604-7.059h-33.091c-.763 0-1.524.344-1.68 1.09l-12.555 59.54c-.164.754-.211 1.289-.126 1.66.09.384 1.561.313 2.316.313h11.462c.767 0 2.16.058 2.565-.105.424-.175.611-1.31.767-2.062l4.051-20.876 4.949-23.157c.161-.742.911-1.351 1.671-1.351l32.779-.022c.757 0 1.236-.606 1.062-1.349" fill="#FFF"/><path d="M435.312 195.66c-.769.009-14.538 0-14.538 0-.762 0-1.741.819-2.165 1.448l-25.519 37.541c-.435.631-.927.608-1.097-.134l-1.885-8.228c-.162-.746-.924-1.354-1.695-1.354h-16.401c-.755 0-1.208.63-1.011 1.366l7.352 25.773c.213.739.232 1.943.043 2.682l-3.428 13.055c-.183.74.286.964 1.06.964h16.194c.76 0 1.547-.222 1.732-.964l3.432-13.238c.188-.738.716-1.742 1.172-2.356l41.645-55.228c.469-.605.4-1.331-.359-1.331l-4.532.004M264.556 206.167h-14.802c-.754 0-1.527.266-1.678 1.013l-4.892 22.891-4.873 21.919c-.156.742-.911.691-1.674.691h-9.727c-9.624 0-8.513-6.079-6.534-15.192.023-.091 6.172-30.309 6.172-30.309.135-.745-.363-1.013-1.117-1.013h-14.103c-.762 0-1.518.268-1.666 1.013l-5.673 30.285c-2.83 16.375-2.916 30.784 16.074 31.259.313.012 29.984 0 29.984 0 .768 0 1.521-.252 1.685-.989l6.439-30.371 6.415-30.497c.001-.001.229-.7-.03-.7M117.126 206.116h-15.869c-.761 0-1.529.181-1.697.93l-2.864 12.391c-.163.732.324 1.318 1.092 1.318h15.195c.768 0 1.529-.692 1.69-1.431l2.759-12.484s.22-.724-.306-.724M96.759 224.934c-.755 0-1.53.603-1.693 1.348l-2.139 9.45-4.773 21.824s-2.541 11.604-2.785 12.33c0 0-2.139 8.376-7.248 8.04-2.377-.156-5.094-.702-5.094-.702h-.007c-1.427-.432-1.527 1.051-1.702 1.792l-3.152 13.598c-.181.743.307 1.413 1.061 1.425 0 0 6.833.962 11.656.962h.793c11.919 0 18.215-7.008 22.24-26.036l4.717-22.025 4.424-20.492c.163-.746-.286-1.438-1.048-1.438M309.047 232.22c0 .828-2.613.671-2.613.671l-20.81-.152c-.719 0-.925-1.008-.975-1.728-.001-.025.053-.865.113-1.073 1.609-5.581 6.408-8.767 14.016-8.767 8.561 0 10.389 4.244 10.389 8.953m-7.158-24.101c-26.692 0-33.066 16.5-36.61 32.853-3.546 16.674-3.242 29.854 24.378 29.854h25.268c.748-.014 1.498-.698 1.647-1.439l2.715-10.576c.157-.75-.349-.971-1.103-.971H293.46c-8.998 0-12.219-2.771-11.904-8.996-.006-.707.805-2.51 1.565-2.51h38.265c1.68-.01 1.734-.994 1.734-.994 3.895-17.581 4.151-37.221-21.111-37.221M172.539 240.382l-3.077 10.513c-.212.738-1.08 1.229-1.841 1.229h-15.869c-12.042 0-14.969-9.307-12.042-23.193 2.94-14.196 8.761-22.98 20.605-23.869 16.193-1.221 19.507 10.216 15.581 23.36l-3.357 11.96m14.102 11.14s7.476-18.16 9.174-28.658c2.321-14.045-4.706-34.418-31.875-34.418-27.008 0-38.727 19.448-43.213 40.594-4.467 21.297 1.381 39.839 28.24 39.689l40.994-.025c.755-.002 1.542-.613 1.735-1.341l3.458-13.16c.188-.743-.281-1.347-1.048-1.349l-3.301-.025-3.302-.014c-.648-.007-1.022-.428-.936-.986a.948.948 0 0 1 .074-.307" fill="#FFF"/></svg>