<svg xmlns="http://www.w3.org/2000/svg" viewBox="0 0 512 512"><path fill="#9777a8" d="M0 512h512V0H0z"/><g fill="#fff"><path d="M397.241 476.69c-43.811 0-79.448-35.646-79.448-79.448a8.826 8.826 0 0 1 8.828-8.828 8.826 8.826 0 0 1 8.828 8.828c0 34.074 27.727 61.793 61.793 61.793s61.793-27.719 61.793-61.793-27.727-61.793-61.793-61.793c-43.811 0-79.448-35.646-79.448-79.448s35.637-79.448 79.448-79.448S476.69 212.198 476.69 256a8.826 8.826 0 0 1-8.828 8.828 8.826 8.826 0 0 1-8.828-8.828c0-34.074-27.727-61.793-61.793-61.793S335.448 221.926 335.448 256s27.727 61.793 61.793 61.793c43.811 0 79.448 35.646 79.448 79.448s-35.636 79.449-79.448 79.449M211.862 476.69c-43.811 0-79.448-35.646-79.448-79.448 0-4.873 3.946-8.828 8.828-8.828s8.828 3.955 8.828 8.828c0 34.074 27.727 61.793 61.793 61.793s61.793-27.719 61.793-61.793V185.379c0-4.873 3.946-8.828 8.828-8.828s8.828 3.955 8.828 8.828v211.862c-.002 43.803-35.639 79.449-79.45 79.449"/></g></svg>