<svg height="512" width="512" xmlns="http://www.w3.org/2000/svg"><path fill="#1E416F" d="M-1.016 512h512V0h-512v512"/><path fill="#010101" opacity=".102" d="M411.984 240h-302l1 62 153 210h247V353l-99-113"/><path d="M137.519 311.898c-10.036 0-17.336-1.757-21.898-5.272-4.562-3.513-6.843-9.775-6.843-18.786v-15.825c0-8.084-3.193-12.125-9.581-12.125v-12.318c6.388 0 9.581-4.319 9.581-12.96v-15.12c0-9.31 2.256-15.854 6.768-19.63 4.512-3.78 11.837-5.669 21.974-5.669v12.319c-7.299 0-10.949 3.956-10.949 11.869v14.543c0 10.919-3.649 17.813-10.949 20.68v.255c7.3 2.738 10.949 9.504 10.949 20.295v13.537c0 4.32.856 7.381 2.567 9.186 1.71 1.803 4.505 2.703 8.382 2.703v12.318M170.367 266.199c0 2.864.713 5.038 2.139 6.521 1.425 1.483 3.336 2.226 5.73 2.226 1.199 0 2.396-.11 3.593-.332a732.02 732.02 0 0 0 3.592-.673v15.118a77.236 77.236 0 0 1-8.061 1.657 58.25 58.25 0 0 1-8.854.652c-2.81 0-5.364-.467-7.667-1.4-2.303-.933-4.267-2.277-5.893-4.03-1.625-1.755-2.883-3.872-3.774-6.352-.891-2.481-1.336-5.274-1.336-8.383v-82.484h20.53v77.48M236.063 248.94c0-9.124-3.9-13.686-11.697-13.686-3.323 0-6.199 1.307-8.629 3.923-2.43 2.616-3.911 5.871-4.438 9.763h24.764m19.161 12.319h-43.797c.713 10.035 6.921 15.055 18.626 15.055 7.472 0 14.037-1.938 19.697-5.817v15.655c-6.259 3.478-14.385 5.217-24.38 5.217-10.92 0-19.396-3.036-25.427-9.109-6.03-6.074-9.046-14.543-9.046-25.406 0-11.277 3.238-20.206 9.709-26.785 6.474-6.58 14.428-9.869 23.867-9.869 9.794 0 17.368 2.904 22.721 8.713 5.353 5.81 8.031 13.69 8.031 23.642v8.704zM263.436 287.605v-18.478c3.492 2.424 6.976 4.227 10.447 5.411 3.471 1.183 6.754 1.774 9.849 1.774 3.763 0 6.731-.441 8.906-1.325s3.261-2.224 3.261-4.022c0-1.324-.492-2.43-1.476-3.313-.984-.884-2.249-1.657-3.796-2.32s-3.24-1.259-5.079-1.785a57.584 57.584 0 0 1-5.304-1.798c-2.736-1.012-5.146-2.104-7.229-3.283-2.081-1.176-3.828-2.536-5.238-4.083-1.412-1.547-2.488-3.336-3.229-5.369-.741-2.03-1.112-4.438-1.112-7.217 0-3.792.854-7.06 2.555-9.805 1.705-2.745 3.971-4.987 6.801-6.725 2.831-1.741 6.074-3.02 9.729-3.839 3.659-.82 7.461-1.229 11.41-1.229 3.079 0 6.21.238 9.388.715a69.168 69.168 0 0 1 9.389 2.086v16.702a36.18 36.18 0 0 0-8.896-3.336c-3.164-.742-6.271-1.112-9.324-1.112a25.12 25.12 0 0 0-4.041.31c-1.269.207-2.389.509-3.357.907-.969.401-1.731.914-2.287 1.541-.557.629-.835 1.34-.835 2.139 0 1.24.41 2.302 1.229 3.187.82.884 1.887 1.647 3.197 2.288a31.214 31.214 0 0 0 4.383 1.721c1.611.507 3.209 1.023 4.792 1.551 2.864.97 5.457 2.029 7.773 3.176 2.316 1.148 4.302 2.495 5.956 4.042a15.872 15.872 0 0 1 3.806 5.443c.884 2.08 1.325 4.555 1.325 7.422 0 4.02-.887 7.451-2.662 10.295-1.775 2.846-4.133 5.162-7.078 6.951s-6.336 3.094-10.18 3.912c-3.843.82-7.831 1.23-11.965 1.23-7.601-.001-14.636-1.255-21.108-3.764M323.656 287.605v-18.478c3.493 2.424 6.977 4.227 10.446 5.411 3.473 1.183 6.755 1.774 9.849 1.774 3.763 0 6.734-.441 8.908-1.325 2.172-.884 3.261-2.224 3.261-4.022 0-1.324-.492-2.43-1.477-3.313s-2.247-1.657-3.794-2.32-3.242-1.259-5.081-1.785a57.461 57.461 0 0 1-5.303-1.798c-2.737-1.012-5.147-2.104-7.229-3.283-2.08-1.176-3.828-2.536-5.239-4.083a16.034 16.034 0 0 1-3.228-5.369c-.742-2.03-1.113-4.438-1.113-7.217 0-3.792.852-7.06 2.556-9.805s3.97-4.987 6.801-6.725c2.831-1.741 6.074-3.02 9.729-3.839 3.659-.82 7.461-1.229 11.409-1.229 3.081 0 6.211.238 9.388.715a69.101 69.101 0 0 1 9.389 2.086v16.702a36.165 36.165 0 0 0-8.896-3.336c-3.164-.742-6.273-1.112-9.322-1.112-1.425 0-2.773.103-4.042.31s-2.388.509-3.356.907c-.972.401-1.734.914-2.289 1.541-.558.629-.834 1.34-.834 2.139 0 1.24.409 2.302 1.229 3.187.82.884 1.886 1.647 3.198 2.288a31.07 31.07 0 0 0 4.383 1.721 302.04 302.04 0 0 1 4.791 1.551c2.865.97 5.456 2.029 7.773 3.176 2.315 1.148 4.3 2.495 5.956 4.042a15.855 15.855 0 0 1 3.805 5.443c.886 2.08 1.325 4.555 1.325 7.422 0 4.02-.888 7.451-2.661 10.295-1.776 2.846-4.136 5.162-7.078 6.951-2.945 1.789-6.339 3.094-10.18 3.912-3.844.82-7.831 1.23-11.966 1.23-7.599-.001-14.634-1.255-21.108-3.764M422.201 259.89c-6.389 0-9.581 4.106-9.581 12.318v15.226c0 9.281-2.148 15.68-6.448 19.192-4.299 3.516-11.273 5.272-20.924 5.272v-12.319c3.833 0 6.617-.891 8.349-2.672 1.731-1.782 2.599-4.811 2.599-9.088v-14.073c0-10.521 3.193-17.1 9.581-19.738v-.277c-6.388-2.865-9.581-9.987-9.581-21.363V218.38c0-7.913-3.65-11.869-10.947-11.869v-12.319c9.609 0 16.572 1.889 20.893 5.669 4.32 3.776 6.479 10.229 6.479 19.353v15.547c0 8.539 3.192 12.81 9.581 12.81v12.319" fill="#FFF"/></svg>