<svg height="32" version="1" width="32" xmlns="http://www.w3.org/2000/svg"><path d="M26.737 4.375c2.842 2.917 4.264 6.75 4.264 11.5 0 4.334-1.422 8.104-4.264 11.312C23.895 30.396 20.295 32 15.938 32c-4.316 0-7.885-1.604-10.706-4.812C2.41 23.979 1 20.209 1 15.875c0-4.75 1.39-8.583 4.171-11.5C7.95 1.459 11.54 0 15.938 0c4.357 0 7.957 1.459 10.799 4.375zm-5.446 6.687a19.293 19.293 0 0 0-.747-3.781c-.373-1.229-.944-2.177-1.711-2.844-.769-.666-1.733-1-2.895-1s-2.116.323-2.863.969c-.747.647-1.297 1.594-1.649 2.844s-.591 2.5-.716 3.75c-.124 1.25-.187 2.771-.187 4.562 0 1.125.021 2.073.062 2.844.04.771.113 1.709.218 2.812.103 1.104.27 2.031.498 2.781.228.75.538 1.49.934 2.219.394.729.902 1.281 1.524 1.656s1.348.562 2.179.562c.829 0 1.565-.188 2.21-.562.643-.375 1.161-.927 1.556-1.656.394-.728.716-1.468.965-2.218s.436-1.677.56-2.781c.125-1.104.197-2.052.219-2.844.02-.791.03-1.729.03-2.812 0-1.709-.062-3.209-.187-4.501z" fill="#EA3939"/></svg>