<svg height="512" width="512" xmlns="http://www.w3.org/2000/svg"><path fill="#9C57A3" d="M-1 513h513V0H-1v513"/><path fill="#010101" opacity=".102" d="M401.785 240.469H135.266l-16.846 20.943-20.227 25.147L264.518 513H512V353.689l-110.215-113.22"/><path d="M294.802 226.195c-.076.348-.166.789-.227 1.081l-2.63 12.306 2.766-12.965.091-.422M216.02 234.431l-1.454 5.142 1.454-5.14v-.002" fill="#5DA3C2"/><path d="M98.037 286.73v-20.848c3.871 3.199 8.071 5.6 12.599 7.199 4.529 1.601 9.1 2.4 13.714 2.4 2.713 0 5.081-.259 7.104-.772 2.021-.515 3.709-1.225 5.065-2.132 1.359-.907 2.369-1.976 3.033-3.204.666-1.228.997-2.563.997-4.006 0-1.857-.527-3.518-1.585-4.981-1.057-1.464-2.5-2.818-4.329-4.06-1.827-1.244-3.995-2.444-6.501-3.602a221.53 221.53 0 0 0-8.111-3.534c-7.399-3.102-12.914-6.894-16.542-11.379-3.628-4.485-5.443-9.899-5.443-16.243 0-4.971 1.003-9.241 3.01-12.812 2.008-3.571 4.743-6.515 8.207-8.828 3.464-2.314 7.475-4.014 12.032-5.1 4.556-1.085 9.385-1.628 14.484-1.628 5.001 0 9.432.296 13.297.888 3.864.594 7.424 1.505 10.681 2.732v19.692a31.715 31.715 0 0 0-5.187-3.021 39.479 39.479 0 0 0-5.785-2.163 42.604 42.604 0 0 0-5.914-1.266 40.818 40.818 0 0 0-5.592-.406c-2.415 0-4.614.243-6.599.729-1.985.485-3.661 1.171-5.025 2.058-1.364.885-2.422 1.945-3.172 3.182-.75 1.235-1.125 2.617-1.125 4.146 0 1.601.418 3.033 1.253 4.295.836 1.265 2.026 2.462 3.568 3.591 1.543 1.128 3.415 2.239 5.614 3.332 2.2 1.092 4.685 2.208 7.458 3.354 3.785 1.599 7.185 3.299 10.198 5.1 3.014 1.799 5.6 3.83 7.758 6.095a23.748 23.748 0 0 1 4.948 7.757c1.144 2.907 1.714 6.289 1.714 10.146 0 5.327-1.021 9.799-3.063 13.413a24.737 24.737 0 0 1-8.313 8.784c-3.5 2.244-7.57 3.854-12.213 4.832-4.643.979-9.542 1.468-14.699 1.468-5.3 0-10.339-.436-15.118-1.308-4.779-.87-8.919-2.17-12.418-3.9M227.37 252.168L217 219.898c-.771-2.413-1.3-5.292-1.585-8.634h-.557a30.737 30.737 0 0 1-1.736 8.335l-10.414 32.568h24.662m35.569 38.399h-23.698l-6.108-19.198H197.35l-6.15 19.198h-23.57l35.162-95.995h25.797l34.35 95.995zM270.824 286.73v-20.848c3.872 3.199 8.07 5.6 12.601 7.199 4.528 1.601 9.098 2.4 13.712 2.4 2.716 0 5.082-.259 7.104-.772 2.021-.515 3.711-1.225 5.067-2.132 1.357-.907 2.367-1.976 3.03-3.204.666-1.228.997-2.563.997-4.006 0-1.857-.528-3.518-1.585-4.981s-2.5-2.818-4.327-4.06c-1.829-1.244-3.996-2.444-6.503-3.602a220.857 220.857 0 0 0-8.112-3.534c-7.397-3.102-12.911-6.894-16.541-11.379-3.628-4.485-5.442-9.899-5.442-16.243 0-4.971 1.005-9.241 3.012-12.812 2.006-3.571 4.74-6.515 8.207-8.828 3.462-2.314 7.473-4.014 12.031-5.1 4.556-1.085 9.384-1.628 14.483-1.628 5 0 9.432.296 13.295.888 3.865.594 7.427 1.505 10.684 2.732v19.692a31.757 31.757 0 0 0-5.187-3.021 39.577 39.577 0 0 0-5.786-2.163 42.524 42.524 0 0 0-5.915-1.266 40.762 40.762 0 0 0-5.592-.406c-2.413 0-4.612.243-6.599.729-1.985.485-3.661 1.171-5.025 2.058-1.363.885-2.42 1.945-3.171 3.182-.749 1.235-1.125 2.617-1.125 4.146 0 1.601.419 3.033 1.254 4.295.834 1.265 2.024 2.462 3.566 3.591 1.545 1.128 3.416 2.239 5.615 3.332 2.199 1.092 4.686 2.208 7.457 3.354 3.783 1.599 7.184 3.299 10.199 5.1 3.014 1.799 5.6 3.83 7.757 6.095a23.764 23.764 0 0 1 4.948 7.757c1.143 2.907 1.716 6.289 1.716 10.146 0 5.327-1.021 9.799-3.064 13.413s-4.814 6.542-8.313 8.784c-3.502 2.244-7.572 3.854-12.214 4.832s-9.542 1.468-14.699 1.468c-5.301 0-10.339-.436-15.117-1.308-4.778-.87-8.917-2.17-12.418-3.9M347.62 286.73v-20.848c3.869 3.199 8.07 5.6 12.597 7.199 4.53 1.601 9.102 2.4 13.714 2.4 2.715 0 5.083-.259 7.104-.772 2.022-.515 3.711-1.225 5.067-2.132 1.355-.907 2.368-1.976 3.031-3.204.665-1.228.997-2.563.997-4.006 0-1.857-.528-3.518-1.585-4.981-1.058-1.464-2.5-2.818-4.328-4.06-1.829-1.244-3.997-2.444-6.505-3.602a221.219 221.219 0 0 0-8.107-3.534c-7.4-3.102-12.915-6.894-16.544-11.379-3.627-4.485-5.44-9.899-5.44-16.243 0-4.971 1.003-9.241 3.01-12.812 2.006-3.571 4.741-6.515 8.207-8.828 3.462-2.314 7.473-4.014 12.031-5.1 4.556-1.085 9.384-1.628 14.483-1.628 5 0 9.432.296 13.295.888 3.863.594 7.426 1.505 10.682 2.732v19.692a31.727 31.727 0 0 0-5.184-3.021 39.608 39.608 0 0 0-5.785-2.163 42.661 42.661 0 0 0-5.916-1.266 40.793 40.793 0 0 0-5.591-.406c-2.414 0-4.614.243-6.601.729-1.984.485-3.659 1.171-5.023 2.058-1.365.885-2.422 1.945-3.172 3.182-.75 1.235-1.126 2.617-1.126 4.146 0 1.601.419 3.033 1.254 4.295.837 1.265 2.026 2.462 3.568 3.591 1.542 1.128 3.413 2.239 5.613 3.332 2.199 1.092 4.686 2.208 7.456 3.354 3.786 1.599 7.186 3.299 10.199 5.1 3.014 1.799 5.602 3.83 7.758 6.095a23.737 23.737 0 0 1 4.95 7.757c1.141 2.907 1.714 6.289 1.714 10.146 0 5.327-1.021 9.799-3.063 13.413a24.734 24.734 0 0 1-8.315 8.784c-3.499 2.244-7.571 3.854-12.214 4.832-4.642.979-9.541 1.468-14.698 1.468-5.3 0-10.338-.436-15.116-1.308-4.78-.87-8.918-2.17-12.417-3.9" fill="#FFF"/></svg>