<svg height="32" version="1" width="32" xmlns="http://www.w3.org/2000/svg"><path d="M26.594 6.406C23.656 3.469 20.125 2 16 2c-.75 0-1.479.062-2.188.188-.042-.041-.062-.083-.062-.125.458-.333.625-.708.5-1.125C14.125.312 13.646 0 12.812 0a2.08 2.08 0 0 0-.5.062c-.459.084-.823.281-1.094.594-.271.312-.365.636-.281.969.083.459.396.75.938.875v.062c-3.167.917-5.771 2.709-7.813 5.376C2.021 10.604 1 13.625 1 17c0 4.125 1.469 7.656 4.406 10.594S11.875 32 16 32s7.656-1.469 10.594-4.406S31 21.125 31 17s-1.469-7.656-4.406-10.594zm-2.532 18.656a11.163 11.163 0 0 1-4.875 2.875l-1.312-2.188-.375 2.5c-.5.084-1 .125-1.5.125-3.125 0-5.812-1.104-8.062-3.312a11.163 11.163 0 0 1-2.875-4.875l2.188-1.312L4.75 18.5c-.084-.5-.125-1-.125-1.5 0-3.125 1.104-5.812 3.312-8.062 1.375-1.375 3-2.333 4.875-2.875l1.312 2.188.375-2.5c.5-.083 1-.125 1.5-.125 3.125 0 5.812 1.104 8.062 3.312 1.375 1.375 2.333 3 2.875 4.875l-2.188 1.312 2.5.375c.083.5.125 1 .125 1.5.002 3.125-1.102 5.812-3.311 8.062z" fill="#E6E6E6"/><path d="M13.5 15.375c-.459.709-.604 1.459-.438 2.25.041.167.104.354.188.562l1.688-2.25 2.25-1.688a2.65 2.65 0 0 0-.812-.25h-.375c-.209 0-.417.021-.625.062-.793.168-1.418.606-1.876 1.314zM18.75 18.188c.25-.584.312-1.188.188-1.813a4.401 4.401 0 0 0-.188-.562l-1.688 2.25-2.25 1.688c.25.125.521.209.812.25h.375c.208 0 .416-.021.625-.062.333-.083.646-.208.938-.375a2.947 2.947 0 0 0 1.188-1.376z"/><path d="M27.25 15.484l-2.5-.375 2.188-1.312c-.542-1.875-1.5-3.5-2.875-4.875C21.812 6.714 19.125 5.609 16 5.609c-.5 0-1 .042-1.5.125l-.375 2.5-1.312-2.188c-1.875.542-3.5 1.5-4.875 2.875-2.209 2.25-3.312 4.938-3.312 8.062 0 .5.041 1 .125 1.5l2.5.375-2.188 1.312c.541 1.875 1.5 3.5 2.875 4.875 2.25 2.209 4.938 3.312 8.062 3.312.5 0 1-.041 1.5-.125l.375-2.5 1.312 2.188c1.875-.541 3.5-1.5 4.875-2.875 2.208-2.25 3.312-4.938 3.312-8.062a9.033 9.033 0 0 0-.124-1.499z" fill="#188FD1"/><path d="M20.698 18.71l-2.202-1.748c0-.029-.007-.057-.009-.086l3.856-2.834-4.646 1.132c-.021-.019-.043-.034-.063-.053l.076-2.819-1.748 2.202c-.029 0-.057.007-.086.009l-2.835-3.856 1.133 4.646c-.019.021-.035.043-.053.064l-2.819-.077 2.202 1.749c0 .029.007.057.009.086l-3.857 2.834 4.647-1.133c.021.019.043.035.064.053l-.077 2.82 1.747-2.203c.029 0 .057-.007.086-.009l2.834 3.857-1.131-4.647c.019-.021.034-.043.053-.063l2.819.076zM16 19a2 2 0 1 1 .001-4.001A2 2 0 0 1 16 19z" opacity=".2"/><path fill="#EA3939" d="M17 18l6.777-8.778L15 16z"/><path fill="#FFF" d="M15 16l-6.779 8.777L17 18z"/></svg>