<svg xmlns="http://www.w3.org/2000/svg" viewBox="0 0 495 495"><path fill="#00969b" d="M247.5 0v40H455v415H247.5v40H495V0z"/><path fill="#00b6bd" d="M40 455V40h207.5V0H0v495h247.5v-40z"/><path d="M178.789 389.199l-75.155-205.796C94.885 202.995 90 224.66 90 247.504c0 62.292 36.223 116.203 88.789 141.695zM250.291 261.287l-47.277 137.315A158.024 158.024 0 0 0 247.521 405c18.326 0 35.917-3.19 52.295-8.958-.42-.673-.804-1.346-1.11-2.15l-48.415-132.605z" fill="#00b6bd"/><path d="M168.063 159.178c8.459-.481 9.458 11.961.955 12.995 0 0-8.495.98-18.029 1.503l57.372 170.57 34.468-103.357-24.549-67.212c-8.478-.523-16.517-1.503-16.517-1.503-8.476-.517-7.48-13.477 1.023-12.995 0 0 25.99 2.018 41.468 2.018 16.456 0 41.99-2.018 41.99-2.018 8.478-.481 9.475 11.961.98 12.995 0 0-8.495.98-18.019 1.503l56.934 169.261 15.705-52.481c7.978-20.458 11.98-37.42 11.98-50.895 0-19.472-7-32.973-12.978-43.451-7.978-12.978-15.458-23.937-15.458-36.932 0-14.479 10.957-27.938 26.453-27.938.672 0 1.346.079 2.018.139C325.849 105.694 288.534 90 247.521 90c-55.04 0-103.453 28.245-131.601 70.987 3.695.132 7.174.209 10.13.209 16.48 0 42.013-2.018 42.013-2.018zM326.715 383.624C373.512 356.323 405 305.602 405 247.504c0-27.398-6.975-53.124-19.28-75.577a121.99 121.99 0 0 1 1.075 16.222c0 15.964-3.004 33.916-11.999 56.392l-48.081 139.083z" fill="#00b6bd"/></svg>