<svg xmlns="http://www.w3.org/2000/svg" viewBox="0 0 512 512"><circle cx="256" cy="256" r="256" fill="#3a67fa"/><path d="M497.228 341.857L381.093 225.723l-88.316 13.576-68.389-61.264-93.658 13.033-19.725 151.09 159.634 169.419c104.871-5.916 192.855-74.948 226.589-169.72z" fill="#2451d1"/><path d="M233.496 241.567a49.027 49.027 0 0 0 7.801-27.415c-.446-27.026-22.938-48.5-49.967-48.5h-75.462a6.4 6.4 0 0 0-6.399 6.399v165.952a6.4 6.4 0 0 0 6.399 6.399h84.296c31.285 0 57.203-25.078 57.327-56.363.081-19.173-9.431-36.171-23.995-46.472zm-90.922-42.809h49.402c8.945 0 16.225 7.278 16.225 16.225 0 8.945-7.28 16.224-16.225 16.224h-49.402v-32.449zm58.323 112.538h-58.323v-46.983h58.323c12.953 0 23.492 10.542 23.492 23.492-.002 12.953-10.538 23.491-23.492 23.491z" fill="#fff"/><g fill="#d1d1d1"><path d="M402.532 276.27c0-38.64-30.455-70.079-67.891-70.079-37.438 0-67.893 31.439-67.893 70.079 0 38.643 30.458 70.078 67.893 70.078 22.714 0 43.822-11.643 56.463-31.148a71.259 71.259 0 0 0 4.277-7.594c.921-1.901-.478-4.115-2.591-4.117l-33.373-.084c-.736 0-1.439.3-1.967.815-6.303 6.127-14.027 9.025-22.807 9.025-16.587 0-30.489-12.405-33.951-28.941h95.199a6.644 6.644 0 0 0 6.642-6.646v-1.389h-.001zm-67.891-36.973c12.145 0 22.852 6.659 29.075 16.715h-58.154c6.225-10.055 16.931-16.715 29.079-16.715zM362.853 197.968h-60.218a5.089 5.089 0 0 1-5.087-5.087v-15.105a5.089 5.089 0 0 1 5.087-5.087h60.218a5.086 5.086 0 0 1 5.084 5.087v15.105a5.083 5.083 0 0 1-5.084 5.087z"/></g></svg>