<svg xmlns="http://www.w3.org/2000/svg" viewBox="0 0 512.001 512.001"><path d="M505.182 113.795l-65.836-65.834c-9.089-9.09-23.827-9.089-32.917 0L256 198.392l-84.594 84.594-65.839-65.839a23.275 23.275 0 0 0-32.917.001l-65.832 65.84c-9.09 9.09-9.09 23.827 0 32.917l148.124 148.133a23.271 23.271 0 0 0 32.916 0l68.141-68.141 249.184-249.184a23.276 23.276 0 0 0-.001-32.918z" fill="#c2fb3b"/><path d="M154.942 464.039a23.272 23.272 0 0 0 32.916 0l68.141-68.141V198.394l-84.594 84.594-65.839-65.839a23.275 23.275 0 0 0-32.916.001L6.818 282.988c-9.09 9.09-9.09 23.827 0 32.917l148.124 148.134z" fill="#9cdd05"/></svg>