<svg xmlns="http://www.w3.org/2000/svg" viewBox="0 0 512 512"><circle cx="256" cy="256" r="256" fill="#dc4373"/><path d="M358.334 151.376c-6.666 2.577-14.305 1.838-17.863-.534-43.098-24.135-89.643-31.03-132.741-18.963-61.693 18.227-86.893 86.635-86.73 150.494 11.311 21.068 26.279 52.617 30.927 76.552l149.12 149.123C406.313 489.36 489.339 406.344 508.04 301.084L358.334 151.376z" fill="#c13366"/><path d="M255.997 109.654c-80.796 0-146.529 65.655-146.529 146.348s65.733 146.342 146.529 146.342c80.799 0 146.535-65.646 146.535-146.342 0-80.693-65.736-146.348-146.535-146.348zm96.421 69.074c16.715 20.716 26.872 46.878 27.341 75.386-5.561-1.141-29.115-5.534-57.263-5.534-9.082 0-18.641.455-28.224 1.639a411.427 411.427 0 0 0-2.469-5.906c-2.486-5.846-5.163-11.645-7.937-17.36 43.321-17.848 64.218-42.619 68.552-48.225zm-96.421-46.165c31.223 0 59.764 11.6 81.563 30.706-3.451 4.708-22.166 28.101-63.938 43.884-19.335-35.344-40.498-64.61-45.535-71.406a123.565 123.565 0 0 1 27.91-3.184zm-53.176 11.995c4.268 5.879 25.464 35.459 45.296 70.518-53.224 13.991-100.488 14.903-111.895 14.903h-1.212c8.195-37.767 33.712-69.149 67.811-85.421zm-70.62 111.637c0-1.019.017-2.038.05-3.051.74.009 1.833.009 3.25.009 15.363 0 68.691-1.269 123.644-17.577a414.201 414.201 0 0 1 9.464 19.763 116.12 116.12 0 0 0-4.117 1.241c-61.874 19.983-95.884 72.888-101.117 81.536-19.389-21.848-31.174-50.529-31.174-81.921zm123.796 123.623c-28.393 0-54.596-9.616-75.505-25.74 3.537-6.934 29.206-53.15 97.013-76.75a.903.903 0 0 1 .136-.045c17.003 44.265 24.204 81.417 26.179 92.931-14.716 6.187-30.876 9.604-47.823 9.604zm70.118-21.792c-1.66-9.526-8.33-44.344-23.726-86.809 8.635-1.343 17.036-1.874 24.914-1.874 25.874 0 46.115 5.665 50.817 7.102-5.591 33.722-24.897 62.904-52.005 81.581z" fill="#f0f1f1"/><path d="M255.997 109.654c-.191 0-.379.014-.571.014v22.902c.19 0 .379-.009.571-.009 31.223 0 59.764 11.6 81.563 30.706-3.451 4.708-22.166 28.101-63.938 43.884-6.07-11.097-12.321-21.594-18.196-30.984v60.478c1.238-.353 2.477-.705 3.717-1.072a414.201 414.201 0 0 1 9.464 19.763c-1.388.398-2.757.796-4.117 1.239a161.657 161.657 0 0 0-9.064 3.26v26.614a209.488 209.488 0 0 1 22.214-9.166c17.003 44.265 24.204 81.417 26.179 92.931-14.714 6.187-30.873 9.604-47.823 9.604-.191 0-.379-.012-.571-.012v22.525c.191 0 .379.014.571.014 80.799 0 146.535-65.646 146.535-146.342.001-80.694-65.735-146.349-146.534-146.349zm35.807 134.658c-2.486-5.846-5.163-11.645-7.937-17.36 43.32-17.848 64.217-42.618 68.551-48.225 16.715 20.716 26.874 46.878 27.341 75.385-5.561-1.141-29.115-5.534-57.261-5.534-9.082 0-18.641.457-28.224 1.639-.812-1.966-1.62-3.926-2.47-5.905zm34.311 113.714c-1.66-9.526-8.33-44.344-23.726-86.809 8.635-1.343 17.036-1.874 24.914-1.874 25.874 0 46.115 5.665 50.817 7.102-5.591 33.722-24.897 62.904-52.005 81.581z" fill="#d1d1d1"/></svg>