<svg xmlns="http://www.w3.org/2000/svg" viewBox="0 0 512 512"><circle cx="256" cy="256" r="256" fill="#cb462d"/><path d="M174.573 394.688l115.105 115.105c111.816-14.695 200.888-101.548 218.952-212.268L360.896 149.742c25.41 42.86-125.593-38.571-157.763-8.094-17.239 20.687-36.202 44.247-56.889 58.039l4.17 92.163 73.406 73.331-49.247 29.507" fill="#aa2b1a"/><path d="M348.036 138.686c-25.186-18.842-58.342-29.218-93.358-29.218-34.959 0-67.775 10.616-92.403 29.891-25.934 20.299-40.219 47.792-40.219 77.421 0 27.445 4.33 48.668 25.569 73.137 2.55 2.938 7.025 3.175 9.847.498l20.871-19.809c2.626-2.493 2.825-6.599.483-9.359-12.895-15.186-14.417-26.26-14.417-44.468 0-35.819 40.495-64.96 90.271-64.96 25.933 0 50.078 7.38 67.989 20.78 16.074 12.024 24.926 27.436 24.926 43.396 0 15.301-3.391 36.264-19.546 49.24-15.207 12.214-39.474 15.46-68.368 9.159v-77.705a6.804 6.804 0 0 0-6.804-6.804h-30.148a6.804 6.804 0 0 0-6.804 6.804v158.484a4.409 4.409 0 0 1-1.66 2.9c-1.193.921-2.184.717-2.508.65l-25.05-5.106a6.803 6.803 0 0 0-8.025 5.308l-6.02 29.539a6.803 6.803 0 0 0 5.308 8.025l25.05 5.106a46.43 46.43 0 0 0 9.288.938c10.271 0 20.375-3.401 28.698-9.828a48.12 48.12 0 0 0 18.642-35.492l.033-.598v-39.1c9.299 1.558 18.327 2.332 27.005 2.332 26.719 0 50.121-7.327 67.884-21.592 23.145-18.587 35.38-47.033 35.38-82.26-.006-29.636-14.888-57.092-41.914-77.309z" fill="#fff"/><path d="M348.036 138.686c-25.186-18.842-58.342-29.218-93.358-29.218-5.563 0-11.061.298-16.491.827v42.627a124.634 124.634 0 0 1 16.491-1.105c25.933 0 50.078 7.38 67.989 20.78 16.074 12.024 24.924 27.436 24.924 43.396 0 15.301-3.391 36.264-19.546 49.24-15.207 12.214-39.474 15.46-68.368 9.159v-77.705a6.804 6.804 0 0 0-6.804-6.804h-14.686v204.814c.955-.633 1.9-1.288 2.815-1.993a48.12 48.12 0 0 0 18.642-35.492l.033-.598v-39.1c9.299 1.558 18.325 2.332 27.005 2.332 26.719 0 50.121-7.327 67.884-21.592 23.143-18.587 35.38-47.033 35.38-82.261-.002-29.634-14.884-57.09-41.91-77.307z" fill="#d1d1d1"/></svg>