<svg xmlns="http://www.w3.org/2000/svg" viewBox="0 0 512 512"><circle cx="256" cy="256" r="256" fill="#31bafd"/><path d="M511.752 266.955l-176.075-176L226.12 292.778l-49.993 99.626L292.73 509.368c120.449-17.31 213.8-118.457 219.022-242.413z" fill="#2b9ed8"/><path d="M322.084 398.222H189.918c-10.631 0-19.249-8.618-19.249-19.249V104.584c0-10.631 8.618-19.251 19.249-19.251h132.167c10.631 0 19.251 8.618 19.251 19.251v274.389c-.001 10.631-8.62 19.249-19.252 19.249z" fill="#324a5e"/><path d="M322.084 85.333h-66.658v312.889h66.658c10.631 0 19.251-8.618 19.251-19.251V104.584c0-10.633-8.619-19.251-19.251-19.251z" fill="#2b3b4e"/><path fill="#fff" d="M177.562 113.778h156.875v256H177.562z"/><path fill="#e6f3ff" d="M255.431 113.778h79.012v256h-79.012z"/><path fill="#f4a200" d="M284.634 227.556h28.26v113.778h-28.26z"/><path fill="#fc6f58" d="M196.318 256h28.26v85.333h-28.26z"/><path fill="#9a4f03" d="M240.468 281.893h28.26v59.442h-28.26z"/><path fill="#804000" d="M255.431 281.893h13.305v59.442h-13.305z"/></svg>