<?xml version="1.0" encoding="utf-8"?><svg xmlns="http://www.w3.org/2000/svg" xmlns:xlink="http://www.w3.org/1999/xlink"><symbol viewBox="0 0 512 512" id="cake" xmlns="http://www.w3.org/2000/svg"><path d="M454.5 420.724V143.085h-93.828V99.638a38.15 38.15 0 0 0 12.146-8.183c13.383-13.383 14.945-34.917 3.634-50.09L345.672.071l-30.78 41.294c-11.311 15.172-9.749 36.707 3.633 50.09h.001a38.177 38.177 0 0 0 12.146 8.183v43.446H271V99.639a38.17 38.17 0 0 0 12.147-8.183c13.382-13.383 14.943-34.917 3.633-50.089L256 .071l-30.78 41.294c-11.311 15.172-9.749 36.707 3.633 50.09h.001A38.177 38.177 0 0 0 241 99.638v43.446h-59.837v-43.42a38.356 38.356 0 0 0 12.146-8.208c13.383-13.382 14.945-34.916 3.635-50.09L166.163.071l-30.78 41.294c-11.312 15.173-9.749 36.708 3.634 50.09a38.334 38.334 0 0 0 12.146 8.208v43.42H57.5v277.641H0v91.205h512v-91.205h-57.5zM87.502 325.935a41.054 41.054 0 0 0 11.212 1.563c22.726 0 41.215-18.489 41.215-41.214v-21.595c0-6.184 5.03-11.214 11.214-11.214s11.215 5.031 11.215 11.214v33.219c0 22.726 18.488 41.214 41.214 41.214s41.215-18.489 41.215-41.214v-47.825c0-6.184 5.03-11.214 11.214-11.214s11.214 5.031 11.214 11.214v30.424c0 22.726 18.489 41.214 41.215 41.214 22.726 0 41.214-18.489 41.214-41.214v-18.849c0-6.184 5.031-11.214 11.215-11.214s11.214 5.031 11.214 11.214v24.625c0 22.726 18.489 41.214 41.215 41.214 3.887 0 7.646-.553 11.214-1.563v94.791h-337v-94.79zM338.944 59.294l6.728-9.025 6.728 9.025c2.473 3.316 2.131 8.022-.794 10.948-3.271 3.271-8.594 3.271-11.867 0-2.925-2.925-3.266-7.631-.795-10.948zm-89.672 0L256 50.27l6.728 9.025c2.472 3.316 2.13 8.023-.794 10.948-3.271 3.271-8.594 3.271-11.867 0-2.924-2.926-3.266-7.632-.795-10.949zm-89.836 0l6.728-9.025 6.728 9.025c2.472 3.316 2.13 8.023-.796 10.949-1.584 1.584-3.69 2.457-5.932 2.457s-4.349-.873-5.934-2.458c-2.925-2.925-3.267-7.631-.794-10.948zM87.5 243.108v-70.024h337v113.199c0 6.184-5.03 11.214-11.214 11.214s-11.215-5.031-11.215-11.214v-24.625c0-22.726-18.488-41.214-41.214-41.214s-41.215 18.489-41.215 41.214v18.849c0 6.184-5.03 11.214-11.214 11.214s-11.215-5.031-11.215-11.214v-30.424c0-22.726-18.488-41.214-41.214-41.214s-41.214 18.489-41.214 41.214v47.825c0 6.184-5.031 11.214-11.215 11.214s-11.214-5.031-11.214-11.214v-33.219c0-22.726-18.489-41.214-41.215-41.214s-41.214 18.489-41.214 41.214v21.595c0 6.184-5.031 11.214-11.215 11.214S87.5 292.467 87.5 286.284v-43.176zM482 481.931H30v-31.205h452v31.205z"/></symbol><symbol viewBox="0 0 56 56" id="controls" xmlns="http://www.w3.org/2000/svg"><path d="M8 14c3.519 0 6.432-2.614 6.92-6H54a1 1 0 1 0 0-2H14.92C14.432 2.614 11.519 0 8 0 4.14 0 1 3.141 1 7s3.14 7 7 7zM8 2c2.757 0 5 2.243 5 5s-2.243 5-5 5-5-2.243-5-5 2.243-5 5-5zm40 40c-3.519 0-6.432 2.614-6.92 6H2a1 1 0 1 0 0 2h39.08c.488 3.386 3.401 6 6.92 6 3.859 0 7-3.141 7-7s-3.141-7-7-7zm0 12c-2.757 0-5-2.243-5-5s2.243-5 5-5 5 2.243 5 5-2.243 5-5 5zm6-27H35.368c-.396-3.602-3.455-6.414-7.161-6.414-3.706 0-6.765 2.813-7.161 6.414H2a1 1 0 1 0 0 2h19.109c.577 3.4 3.536 6 7.098 6s6.52-2.6 7.097-6H54a1 1 0 1 0 0-2zm-25.793 6C25.336 33 23 30.664 23 27.793s2.336-5.207 5.207-5.207 5.207 2.336 5.207 5.207S31.078 33 28.207 33z"/></symbol><symbol viewBox="0 0 96.124 96.123" id="facebook-logo" xmlns="http://www.w3.org/2000/svg"><path d="M72.089.02L59.624 0C45.62 0 36.57 9.285 36.57 23.656v10.907H24.037a1.96 1.96 0 0 0-1.96 1.961v15.803a1.96 1.96 0 0 0 1.96 1.96H36.57v39.876a1.96 1.96 0 0 0 1.96 1.96h16.352a1.96 1.96 0 0 0 1.96-1.96V54.287h14.654a1.96 1.96 0 0 0 1.96-1.96l.006-15.803a1.963 1.963 0 0 0-1.961-1.961H56.842v-9.246c0-4.444 1.059-6.7 6.848-6.7l8.397-.003a1.96 1.96 0 0 0 1.959-1.96V1.98A1.96 1.96 0 0 0 72.089.02z"/></symbol><symbol viewBox="0 0 15.931 15.931" id="fl" xmlns="http://www.w3.org/2000/svg"><path d="M14.561 0H1.369A1.37 1.37 0 0 0 0 1.37v13.192a1.37 1.37 0 0 0 1.369 1.369H14.56c.756 0 1.371-.614 1.371-1.369V1.37A1.37 1.37 0 0 0 14.561 0zM8.916 5.015H5.617v1.962H8.7v1.58H5.617v3.454h-1.95V3.423h5.25l-.001 1.592zm3.872 7.551c-2.196 0-2.966-1.212-2.966-2.7V3.423h2.125v6.521c0 .318.523.496.841.496v2.126z"/></symbol><symbol viewBox="0 0 47.001 47.001" id="handshake" xmlns="http://www.w3.org/2000/svg"><path d="M31.736 10.307a.97.97 0 0 0-.398-.24l-8.975-2.818c-3.589-1.127-5.924.839-6.553 1.47-.367.367-.648.754-.792 1.091l-3.998 9.404c-.229.538-.151 1.255.208 1.97a3.85 3.85 0 0 0 2.547 2.022c1.239.297 2.524-.106 3.53-1.111.263-.263.487-.553.619-.799l1.344-2.493a5.23 5.23 0 0 1 .88-1.179c1.153-1.154 1.701-.626 1.934-.402 2.011 1.941 12.554 12.529 12.554 12.529.375.375.297 1.086-.172 1.554-.468.467-1.18.547-1.554.174l-2.962-2.961a.972.972 0 0 0-1.38 0 .973.973 0 0 0 0 1.379l2.962 2.963c.374.373.296 1.084-.172 1.551-.468.469-1.181.547-1.553.174l-2.963-2.961a.974.974 0 0 0-1.38 0 .974.974 0 0 0 0 1.38l2.962 2.962c.374.374.293 1.085-.174 1.553-.467.467-1.178.547-1.553.172l-2.962-2.961a.976.976 0 0 0-1.38 1.379l2.962 2.963c.375.375.295 1.086-.172 1.554-.47.468-1.181.547-1.554.173l-3.606-3.609c.515-.774.375-1.897-.389-2.664-.856-.855-2.173-.934-2.935-.17.762-.763.687-2.078-.171-2.935-.858-.856-2.172-.935-2.934-.173.762-.762.685-2.076-.174-2.932-.856-.858-2.17-.936-2.934-.174.764-.762.685-2.076-.172-2.935-.802-.802-1.997-.911-2.774-.3l-5.839-5.839a.975.975 0 1 0-1.381 1.381l5.824 5.823-1.727 1.727c-.762.761-.685 2.075.174 2.934.856.856 2.17.935 2.933.172-.763.763-.685 2.076.173 2.934.856.855 2.171.936 2.934.173-.763.763-.686 2.076.172 2.933.858.858 2.172.936 2.934.174-.762.761-.685 2.074.173 2.933.857.856 2.17.935 2.934.172l1.824-1.823 3.581 3.58c1.143 1.143 3.076 1.063 4.314-.173a3.3 3.3 0 0 0 .97-2.135 3.295 3.295 0 0 0 2.135-.972 3.305 3.305 0 0 0 .974-2.135 3.305 3.305 0 0 0 2.135-.971 3.297 3.297 0 0 0 .97-2.136 3.288 3.288 0 0 0 2.137-.972c1.236-1.236 1.312-3.172.172-4.313l-1.51-1.511 6.2-6.199a.976.976 0 0 0 0-1.38l-8.972-8.977zm14.694 2.182l-7.901-7.901a1.952 1.952 0 0 0-2.762 0l-2.762 2.76a1.953 1.953 0 0 0 0 2.761l7.902 7.903c.763.762 2 .762 2.762 0l2.761-2.761c.761-.763.761-2 0-2.762zm-4.147 4.024a1.602 1.602 0 1 1 0-3.205 1.602 1.602 0 0 1 0 3.205z"/></symbol><symbol viewBox="0 0 512 512" id="home" xmlns="http://www.w3.org/2000/svg"><path d="M502.625 287.792L256 41.167 9.375 287.792c-12.5 12.5-12.5 32.75 0 45.25s32.75 12.5 45.25 0L64 323.667v147.166h384V323.667l9.375 9.375c6.25 6.25 14.438 9.375 22.625 9.375s16.375-3.125 22.625-9.375c12.5-12.5 12.5-32.75 0-45.25zM416 438.833H224v-128h-64v128H96V291.667l160-160 160 160v147.166z"/><path d="M288 310.833h64v64h-64z"/><path d="M288 310.833h64v64h-64zM160 91.917V54.833H96v101.084z"/></symbol><symbol viewBox="0 0 430.117 430.117" id="linkedin-logo" xmlns="http://www.w3.org/2000/svg"><path d="M430.117 261.543V420.56h-92.188V272.193c0-37.271-13.334-62.707-46.703-62.707-25.473 0-40.632 17.142-47.301 33.724-2.432 5.928-3.058 14.179-3.058 22.477V420.56h-92.219s1.242-251.285 0-277.32h92.21v39.309c-.187.294-.43.611-.606.896h.606v-.896c12.251-18.869 34.13-45.824 83.102-45.824 60.673-.001 106.157 39.636 106.157 124.818zM52.183 9.558C20.635 9.558 0 30.251 0 57.463c0 26.619 20.038 47.94 50.959 47.94h.616c32.159 0 52.159-21.317 52.159-47.94-.606-27.212-20-47.905-51.551-47.905zM5.477 420.56h92.184V143.24H5.477v277.32z"/></symbol><symbol viewBox="0 0 37.801 37.801" id="mail" xmlns="http://www.w3.org/2000/svg"><path d="M25.109 28.298a.495.495 0 0 1-.342-.136l-5.754-5.398a.498.498 0 0 1-.022-.706.498.498 0 0 1 .706-.022l5.754 5.398a.498.498 0 0 1 .022.706.495.495 0 0 1-.364.158zm-19.205 0a.498.498 0 0 1-.342-.864l5.754-5.4a.498.498 0 1 1 .684.728l-5.754 5.4a.495.495 0 0 1-.342.136z"/><path d="M28.512 33.317H2.5a2.502 2.502 0 0 1-2.5-2.5V13.769c0-1.379 1.121-2.5 2.5-2.5h21.225a.5.5 0 0 1 0 1H2.5c-.827 0-1.5.673-1.5 1.5v17.049c0 .827.673 1.5 1.5 1.5h26.012c.827 0 1.5-.673 1.5-1.5V18.556a.5.5 0 0 1 1 0v12.262a2.502 2.502 0 0 1-2.5 2.499z"/><path d="M15.512 24.806c-.667 0-1.335-.222-1.842-.664L.877 12.988a.5.5 0 1 1 .656-.754l12.793 11.153c.642.558 1.723.56 2.364.004l8.529-7.386a.5.5 0 1 1 .654.756l-8.529 7.386c-.505.439-1.168.659-1.832.659z"/><path d="M30.514 19.056c-4.02 0-7.289-3.269-7.289-7.285 0-4.019 3.27-7.287 7.289-7.287s7.287 3.269 7.287 7.287c0 4.016-3.269 7.285-7.287 7.285zm0-13.573a6.295 6.295 0 0 0-6.289 6.287 6.294 6.294 0 0 0 6.289 6.285 6.293 6.293 0 0 0 6.287-6.285 6.295 6.295 0 0 0-6.287-6.287z"/><path d="M33.584 12.271h-6.016a.5.5 0 0 1 0-1h6.016a.5.5 0 0 1 0 1z"/><path d="M30.576 15.278a.5.5 0 0 1-.5-.5V8.765a.5.5 0 0 1 1 0v6.014a.499.499 0 0 1-.5.499z"/></symbol><symbol viewBox="0 0 430.114 430.114" id="maps" xmlns="http://www.w3.org/2000/svg"><path d="M356.208 107.051c-1.531-5.738-4.64-11.852-6.94-17.205C321.746 23.704 261.611 0 213.055 0 148.054 0 76.463 43.586 66.905 133.427v18.355c0 .766.264 7.647.639 11.089 5.358 42.816 39.143 88.32 64.375 131.136 27.146 45.873 55.314 90.999 83.221 136.106 17.208-29.436 34.354-59.259 51.17-87.933 4.583-8.415 9.903-16.825 14.491-24.857 3.058-5.348 8.9-10.696 11.569-15.672 27.145-49.699 70.838-99.782 70.838-149.104v-20.262c.001-5.347-6.627-24.081-7-25.234zm-141.963 92.142c-19.107 0-40.021-9.554-50.344-35.939-1.538-4.2-1.414-12.617-1.414-13.388v-11.852c0-33.636 28.56-48.932 53.406-48.932 30.588 0 54.245 24.472 54.245 55.06 0 30.587-25.305 55.051-55.893 55.051z"/></symbol><symbol viewBox="0 0 55 55" id="network" xmlns="http://www.w3.org/2000/svg"><path d="M49 0c-3.309 0-6 2.691-6 6 0 1.035.263 2.009.726 2.86l-9.829 9.829a7.943 7.943 0 0 0-9.795-.001l-7.669-7.669A3.947 3.947 0 0 0 17 9c0-2.206-1.794-4-4-4S9 6.794 9 9s1.794 4 4 4c.74 0 1.424-.215 2.019-.567l7.669 7.669a7.953 7.953 0 0 0 0 9.795L10.024 42.562A5.971 5.971 0 0 0 6 41c-3.309 0-6 2.691-6 6s2.691 6 6 6 6-2.691 6-6a5.966 5.966 0 0 0-.726-2.86l12.829-12.829a7.953 7.953 0 0 0 3.898 1.619v10.16c-2.833.478-5 2.942-5 5.91 0 3.309 2.691 6 6 6s6-2.691 6-6c0-2.967-2.167-5.431-5-5.91V32.93a7.953 7.953 0 0 0 3.898-1.619l7.669 7.669A3.945 3.945 0 0 0 41 41c0 2.206 1.794 4 4 4s4-1.794 4-4-1.794-4-4-4c-.74 0-1.424.215-2.019.567l-7.669-7.669a7.953 7.953 0 0 0 0-9.795l9.665-9.665A5.967 5.967 0 0 0 49 12c3.309 0 6-2.691 6-6s-2.691-6-6-6zM11 9c0-1.103.897-2 2-2s2 .897 2 2-.897 2-2 2-2-.897-2-2zM6 51c-2.206 0-4-1.794-4-4s1.794-4 4-4 4 1.794 4 4-1.794 4-4 4zm27-2c0 2.206-1.794 4-4 4s-4-1.794-4-4 1.794-4 4-4 4 1.794 4 4zm-4-18c-3.309 0-6-2.691-6-6s2.691-6 6-6 6 2.691 6 6-2.691 6-6 6zm18 10c0 1.103-.897 2-2 2s-2-.897-2-2 .897-2 2-2 2 .897 2 2zm2-31c-2.206 0-4-1.794-4-4s1.794-4 4-4 4 1.794 4 4-1.794 4-4 4z"/></symbol><symbol viewBox="0 0 92.001 92.001" id="network-connection" xmlns="http://www.w3.org/2000/svg"><path d="M22.366 30.569a9.77 9.77 0 0 1 2.887.434 79.135 79.135 0 0 1 11.411-10.5 9.845 9.845 0 0 1-.275-2.274c0-1.084.184-2.125.51-3.1A71.754 71.754 0 0 0 21.852 6.85 46.211 46.211 0 0 0 8.938 18.762a72.35 72.35 0 0 0 9.189 12.784 9.723 9.723 0 0 1 4.239-.977zm-9.786 9.786c0-1.374.287-2.682.798-3.868a78.865 78.865 0 0 1-8.479-11.135A45.762 45.762 0 0 0 0 45.999a45.763 45.763 0 0 0 6.476 23.533c1.468-8.277 4.254-16.096 8.103-23.268a9.711 9.711 0 0 1-1.999-5.909zM46.176 8.441a9.74 9.74 0 0 1 6.678 2.646 77.967 77.967 0 0 1 16.078-4.958A45.78 45.78 0 0 0 46 0a45.877 45.877 0 0 0-16.18 2.936 78.846 78.846 0 0 1 11.385 6.873 9.72 9.72 0 0 1 4.971-1.368zm14.636 46.097a9.783 9.783 0 0 1 2.543-3.281 71.605 71.605 0 0 0-13.359-24.016 9.752 9.752 0 0 1-3.82.774 9.734 9.734 0 0 1-5.686-1.832 72 72 0 0 0-9.815 9.018 9.721 9.721 0 0 1 1.479 5.154 9.793 9.793 0 0 1-.448 2.933 71.164 71.164 0 0 0 29.106 11.25zm12.695 13.211a77.17 77.17 0 0 1 .206 5.609c0 3.321-.212 6.592-.612 9.805C80.9 77.465 86.84 69.376 89.835 59.97a78.168 78.168 0 0 1-10.902 1.828 9.814 9.814 0 0 1-5.426 5.951zm-14.988-6.633c-11.354-1.881-21.883-6.213-31.046-12.421a9.733 9.733 0 0 1-7.112 1.241 71.15 71.15 0 0 0-7.996 27.428 46.08 46.08 0 0 0 15.727 11.019 78.286 78.286 0 0 1 30.427-27.267zm18.361-49.21a71.102 71.102 0 0 0-20.967 5.342 9.743 9.743 0 0 1-.954 5.281 78.45 78.45 0 0 1 14.846 26.456 9.79 9.79 0 0 1 8.845 5.971 71.072 71.072 0 0 0 12.894-2.518c.294-2.104.457-4.251.457-6.439 0-13.52-5.834-25.677-15.121-34.093zM63.443 66.345a71.461 71.461 0 0 0-28.616 24.282A46.069 46.069 0 0 0 46 92.001a45.807 45.807 0 0 0 19.413-4.297 71.553 71.553 0 0 0 1.45-14.346c0-1.775-.08-3.532-.213-5.273a9.797 9.797 0 0 1-3.207-1.74z"/></symbol><symbol viewBox="0 0 161 33.2" id="new" xmlns="http://www.w3.org/2000/svg"><path d="M12.5 0h4.6l3.8 20.9h.1L24.2 0h5.3l-5.8 32.8H19l-4.1-21.7h-.1L11 32.8H6.2L0 0h5.3l3.5 20.9h.1L12.5 0zm33 21.5H34.8V25c0 1.4.2 2.4.7 3.1.5.6 1.2.9 2.1.9.9 0 1.6-.3 2.1-.9.5-.6.7-1.6.7-3.1v-.5h5.1c0 1.3-.2 2.5-.5 3.5-.3 1.1-.7 2-1.4 2.7-.6.8-1.4 1.4-2.4 1.8-1 .4-2.2.6-3.6.6-1.5 0-2.7-.2-3.7-.7-1-.4-1.8-1.1-2.5-1.9-.6-.8-1.1-1.8-1.4-2.9-.3-1.1-.4-2.3-.4-3.7V17c0-1.3.1-2.6.4-3.7.3-1.1.7-2.1 1.4-2.9.7-.8 1.6-1.4 2.6-1.8 1-.4 2.2-.7 3.7-.7s2.7.2 3.7.7c1 .4 1.8 1.1 2.5 1.9.6.8 1.1 1.8 1.4 2.9.3 1.1.4 2.3.4 3.7v4.4zm-5-4.2V16c0-1.4-.2-2.4-.7-3.1-.5-.6-1.2-.9-2.1-.9-.9 0-1.6.3-2.1.9-.5.6-.7 1.6-.7 3.1v1.3h5.6zm7.9 15.5V0h5.1v10.4c.5-.4.9-.7 1.3-1.1.4-.3.8-.6 1.2-.8.4-.2.8-.4 1.2-.5.4-.1.9-.2 1.5-.2 1.6 0 2.9.6 3.8 1.7.9 1.2 1.4 2.8 1.4 5.1v11.7c0 2.2-.5 3.9-1.4 5.1-.9 1.2-2.2 1.7-3.8 1.7-1.3 0-2.3-.2-3-.7-.8-.5-1.6-1.2-2.4-2.3h-.1v2.5h-4.8zm5-5c.5.4 1 .7 1.5.9.5.2.9.4 1.5.4.3 0 .7-.1 1-.2.3-.1.6-.3.8-.6.2-.3.4-.7.5-1.2.1-.5.2-1.2.2-2V16c0-.8-.1-1.5-.2-2s-.3-.9-.5-1.2c-.2-.3-.5-.5-.8-.6-.3-.1-.6-.2-1-.2-.5 0-1 .1-1.5.4-.5.2-.9.5-1.5.9v14.5zm13.3 5V0h5.1v32.8h-5.1zm8.6-17.3c.2-2.5 1-4.4 2.4-5.7 1.5-1.3 3.4-2 5.8-2s4.2.5 5.5 1.6c1.3 1.1 1.9 2.8 1.9 5v15.7c0 .4 0 .8.1 1.3s.1.9.2 1.3h-4.9c0-.3-.1-.7-.1-1-.1-.3-.1-.6-.1-.9-1 .8-1.9 1.4-2.8 1.8-.9.4-1.9.6-3.2.6-1.7 0-3-.5-3.9-1.6-.9-1-1.3-2.4-1.3-3.9 0-1.3.2-2.5.7-3.6.4-1.1 1.1-2 2-2.9.9-.9 2-1.7 3.4-2.4s3-1.5 4.8-2.2v-1.5c0-2.1-.8-3.1-2.5-3.1-1.2 0-1.9.3-2.3.9-.4.6-.6 1.5-.6 2.5h-5.1zm10.5 4.9c-1.2.7-2.1 1.3-2.9 1.8-.8.5-1.3 1.1-1.8 1.6-.4.5-.7 1-.9 1.5s-.2 1-.2 1.5c0 .8.2 1.4.6 1.7.4.3 1 .5 1.8.5.7 0 1.3-.2 1.9-.7.6-.5 1.1-1 1.5-1.6v-6.3zm8.4 12.4V8.4H99v2.5c.5-.5 1-.9 1.5-1.2.4-.4.9-.7 1.3-.9l1.5-.6c.5-.1 1.2-.2 1.9-.2 1.4 0 2.4.5 3.2 1.4.7.9 1.1 2.2 1.1 3.8V33h-5.1V13.8c0-.6-.2-1.1-.5-1.3-.3-.3-.8-.4-1.3-.4s-1.1.2-1.6.5-1.1.7-1.7 1.1v19.2h-5.1zM123 16.7v-.6c0-1.4-.2-2.4-.7-3.1-.5-.6-1.2-.9-2.1-.9s-1.6.3-2.1.9c-.5.6-.7 1.6-.7 3.1v9c0 1.4.2 2.4.7 3.1.5.6 1.2.9 2.1.9s1.6-.3 2.1-.9c.5-.6.7-1.6.7-3.1v-1.5h5.1v.6c0 1.3-.1 2.6-.4 3.7-.3 1.1-.7 2.1-1.4 2.9-.6.8-1.5 1.4-2.5 1.9-1 .4-2.2.7-3.7.7s-2.7-.2-3.7-.7c-1-.4-1.8-1.1-2.5-1.9-.6-.8-1.1-1.8-1.4-2.9-.3-1.1-.4-2.3-.4-3.7V17c0-1.3.1-2.6.4-3.7s.7-2.1 1.4-2.9c.6-.8 1.5-1.4 2.5-1.9 1-.4 2.2-.7 3.7-.7 1.4 0 2.6.2 3.6.6 1 .4 1.8 1 2.4 1.8.6.8 1.1 1.7 1.4 2.8.3 1.1.4 2.3.5 3.6h-5zm23.4 4.8h-10.7V25c0 1.4.2 2.4.7 3.1.5.6 1.2.9 2.1.9s1.6-.3 2.1-.9c.5-.6.7-1.6.7-3.1v-.5h5.1c0 1.3-.2 2.5-.5 3.5-.3 1.1-.7 2-1.4 2.7-.6.8-1.4 1.4-2.4 1.8-1 .4-2.2.6-3.6.6-1.5 0-2.7-.2-3.7-.7-1-.4-1.8-1.1-2.5-1.9-.6-.8-1.1-1.8-1.4-2.9-.3-1.1-.4-2.3-.4-3.7V17c0-1.3.1-2.6.4-3.7s.7-2.1 1.4-2.9c.6-.8 1.5-1.4 2.5-1.9 1-.4 2.2-.7 3.7-.7s2.7.2 3.7.7c1 .4 1.8 1.1 2.5 1.9.6.8 1.1 1.8 1.4 2.9.3 1.1.4 2.3.4 3.7v4.5zm-5.1-4.2V16c0-1.4-.2-2.4-.7-3.1-.5-.6-1.2-.9-2.1-.9s-1.6.3-2.1.9c-.5.6-.7 1.6-.7 3.1v1.3h5.6zm7.9 15.5V8.4h4.9v2.9h.1c.6-1.1 1.4-1.9 2.4-2.5 1-.6 2.1-.9 3.3-.9h1v5.3c-.5-.1-.9-.2-1.4-.3-.5-.1-1.1-.2-1.9-.2-.9 0-1.7.3-2.4.8s-1 1.4-1 2.5v16.8h-5z"/></symbol><symbol viewBox="0 0 294.842 294.842" id="note" xmlns="http://www.w3.org/2000/svg"><path d="M288.842 0H6a6 6 0 0 0-6 6v282.842a6 6 0 0 0 6 6h240.421a6 6 0 0 0 0-12H12V12h270.842v276.842a6 6 0 0 0 12 0V6a6 6 0 0 0-6-6z"/><path d="M65.815 62.421c-12.683 0-23 10.317-23 23s10.317 23 23 23 23-10.317 23-23-10.317-23-23-23zm0 34c-6.065 0-11-4.935-11-11s4.935-11 11-11 11 4.935 11 11-4.934 11-11 11zm181-17h-140a6 6 0 0 0 0 12h140a6 6 0 0 0 0-12zm-181 45a6 6 0 0 0 0 12c6.065 0 11 4.935 11 11s-4.935 11-11 11-11-4.935-11-11a6 6 0 0 0-12 0c0 12.683 10.317 23 23 23s23-10.317 23-23-10.317-23-23-23zm181 17h-140a6 6 0 0 0 0 12h140a6 6 0 0 0 0-12zm-181 45c-12.683 0-23 10.317-23 23s10.317 23 23 23 23-10.317 23-23-10.317-23-23-23zm0 34c-6.065 0-11-4.935-11-11s4.935-11 11-11 11 4.935 11 11-4.934 11-11 11zm181-17h-140a6 6 0 0 0 0 12h140a6 6 0 0 0 0-12z"/></symbol><symbol viewBox="0 0 512.004 512.004" id="open-book" xmlns="http://www.w3.org/2000/svg"><path d="M291.057 242.811a8.56 8.56 0 0 0 7.62 4.659 8.517 8.517 0 0 0 3.866-.93c.503-.256 50.731-25.771 75.503-33.596 4.489-1.425 6.98-6.221 5.555-10.709a8.528 8.528 0 0 0-10.709-5.572c-26.095 8.252-75.981 33.596-78.097 34.671-4.199 2.133-5.871 7.271-3.738 11.477zm7.62-97.74a8.517 8.517 0 0 0 3.866-.93c.503-.256 50.731-25.771 75.503-33.596 4.489-1.425 6.98-6.221 5.555-10.709a8.528 8.528 0 0 0-10.709-5.572c-26.095 8.252-75.981 33.596-78.097 34.671-4.198 2.133-5.871 7.27-3.738 11.477a8.562 8.562 0 0 0 7.62 4.659z"/><path d="M503.469 128.004a8.53 8.53 0 0 0-8.533 8.533v332.8c0 14.114-11.486 25.6-25.6 25.6h-204.8v-19.635c12.442-4.352 44.851-14.498 76.8-14.498 74.334 0 124.809 16.461 125.312 16.631a8.583 8.583 0 0 0 7.68-1.178 8.527 8.527 0 0 0 3.541-6.921V93.871a8.52 8.52 0 0 0-6.682-8.329s-6.69-1.493-18.125-3.593c-4.617-.853-9.079 2.219-9.933 6.844-.853 4.642 2.21 9.088 6.844 9.941a704.53 704.53 0 0 1 10.829 2.074v357.188c-19.337-5.069-62.276-14.259-119.467-14.259-37.18 0-73.702 12.211-85.001 16.35-10.044-4.437-40.405-16.35-77.133-16.35-58.778 0-107.196 9.694-128 14.618v-357.88c17.041-4.19 67.371-15.138 128-15.138 31.113 0 57.796 9.685 68.267 14.063v335.804a8.534 8.534 0 0 0 12.928 7.313c.845-.503 85.393-51.004 160.435-76.015a8.534 8.534 0 0 0 5.837-8.098V8.537a8.53 8.53 0 0 0-3.678-7.014 8.525 8.525 0 0 0-7.859-.981c-68.275 25.608-137.36 68.599-138.052 69.026-3.994 2.5-5.214 7.765-2.714 11.759 2.492 3.994 7.757 5.214 11.759 2.714.631-.401 60.732-37.794 123.477-63.027v331.281c-58.249 20.241-119.066 53.291-145.067 68.087V93.871a8.541 8.541 0 0 0-4.719-7.637c-1.468-.725-36.437-17.963-80.614-17.963-77.107 0-136.388 16.683-138.88 17.399a8.528 8.528 0 0 0-6.187 8.201v375.467a8.57 8.57 0 0 0 3.388 6.81 8.527 8.527 0 0 0 5.146 1.724c.785 0 1.57-.111 2.338-.333.589-.162 59.597-16.734 134.195-16.734 31.198 0 57.856 9.711 68.267 14.071v20.062h-204.8c-14.114 0-25.6-11.486-25.6-25.6v-332.8c0-4.71-3.823-8.533-8.533-8.533s-8.533 3.823-8.533 8.533v332.8c0 23.526 19.14 42.667 42.667 42.667h426.667c23.526 0 42.667-19.14 42.667-42.667v-332.8a8.532 8.532 0 0 0-8.534-8.534z"/><path d="M291.057 191.611a8.56 8.56 0 0 0 7.62 4.659 8.517 8.517 0 0 0 3.866-.93c.503-.256 50.731-25.771 75.503-33.596 4.489-1.425 6.98-6.221 5.555-10.709a8.528 8.528 0 0 0-10.709-5.572c-26.095 8.252-75.981 33.596-78.097 34.671-4.199 2.133-5.871 7.271-3.738 11.477zm0 102.4a8.56 8.56 0 0 0 7.62 4.659 8.517 8.517 0 0 0 3.866-.93c.503-.256 50.731-25.771 75.503-33.596 4.489-1.425 6.98-6.221 5.555-10.709a8.528 8.528 0 0 0-10.709-5.572c-26.095 8.252-75.981 33.596-78.097 34.671-4.199 2.133-5.871 7.271-3.738 11.477zm-84.309-135.645c-52.693-12.365-112.572 3.388-115.089 4.062a8.535 8.535 0 1 0 4.421 16.486c.572-.162 58.223-15.326 106.778-3.934 4.565 1.067 9.182-1.775 10.257-6.366 1.074-4.582-1.776-9.173-6.367-10.248zm0 51.2c-52.693-12.356-112.572 3.388-115.089 4.062a8.535 8.535 0 1 0 4.421 16.486c.572-.162 58.223-15.326 106.778-3.934 4.565 1.067 9.182-1.775 10.257-6.366 1.074-4.582-1.776-9.173-6.367-10.248zm84.309 135.645a8.56 8.56 0 0 0 7.62 4.659 8.517 8.517 0 0 0 3.866-.93c.503-.256 50.731-25.771 75.503-33.596 4.489-1.425 6.98-6.221 5.555-10.709a8.528 8.528 0 0 0-10.709-5.572c-26.095 8.252-75.981 33.596-78.097 34.671-4.199 2.133-5.871 7.271-3.738 11.477zm-84.309-84.445c-52.693-12.356-112.572 3.379-115.089 4.062a8.536 8.536 0 0 0-6.033 10.453 8.543 8.543 0 0 0 8.235 6.332c.734 0 1.476-.102 2.219-.299.572-.162 58.223-15.326 106.778-3.934 4.565 1.067 9.182-1.775 10.257-6.366 1.074-4.582-1.776-9.173-6.367-10.248zm0 102.4c-52.693-12.365-112.572 3.388-115.089 4.062a8.536 8.536 0 0 0-6.033 10.453 8.543 8.543 0 0 0 8.235 6.332c.734 0 1.476-.102 2.219-.299.572-.162 58.223-15.326 106.778-3.934 4.565 1.058 9.182-1.775 10.257-6.366 1.074-4.582-1.776-9.173-6.367-10.248zm0-51.2c-52.693-12.365-112.572 3.379-115.089 4.062a8.536 8.536 0 0 0-6.033 10.453 8.543 8.543 0 0 0 8.235 6.332c.734 0 1.476-.102 2.219-.299.572-.162 58.223-15.326 106.778-3.934 4.565 1.067 9.182-1.775 10.257-6.366 1.074-4.582-1.776-9.173-6.367-10.248z"/></symbol><symbol viewBox="0 0 297 297" id="resume" xmlns="http://www.w3.org/2000/svg"><path d="M97.674 94.493c.059-.02 5.637-1.733 5.637-1.733a7.875 7.875 0 0 1 9.71 4.832l7.635 20.95 7.635-20.951a7.88 7.88 0 0 1 9.71-4.831s5.578 1.713 5.637 1.733a23.112 23.112 0 0 1 15.549 18.37V50.76a5.76 5.76 0 0 0-5.76-5.76H87.885a5.76 5.76 0 0 0-5.76 5.76v62.103a23.114 23.114 0 0 1 15.549-18.37zm22.982-41.126c10.235 0 18.563 8.327 18.563 18.563 0 10.235-8.327 18.563-18.563 18.563s-18.563-8.327-18.563-18.563c.001-10.236 8.328-18.563 18.563-18.563z"/><path d="M140.425 110.297l-8.516 23.367h11.81v-17.209a7.39 7.39 0 0 0-3.294-6.158zm-42.831 6.158v17.209h11.81l-8.516-23.367a7.39 7.39 0 0 0-3.294 6.158z"/><path d="M249.375 0H47.625c-5.799 0-10.5 4.701-10.5 10.5v276c0 5.799 4.701 10.5 10.5 10.5h201.75c5.799 0 10.5-4.701 10.5-10.5v-276c0-5.799-4.701-10.5-10.5-10.5zm-183 37.125a7.875 7.875 0 0 1 7.875-7.875h92.812a7.875 7.875 0 0 1 7.875 7.875v104.414a7.875 7.875 0 0 1-7.875 7.875H74.25a7.875 7.875 0 0 1-7.875-7.875V37.125zM222.75 249.188H74.25a7.875 7.875 0 0 1 0-15.75h148.5a7.875 7.875 0 0 1 0 15.75zm0-55.688H74.25a7.875 7.875 0 0 1 0-15.75h148.5a7.875 7.875 0 0 1 0 15.75zm0-74.25h-18.563a7.875 7.875 0 0 1 0-15.75h18.563a7.875 7.875 0 0 1 0 15.75zm0-37.125h-18.563a7.875 7.875 0 0 1 0-15.75h18.563a7.875 7.875 0 0 1 0 15.75z"/></symbol><symbol viewBox="0 0 455 455" id="skype" xmlns="http://www.w3.org/2000/svg"><g fill-rule="evenodd" clip-rule="evenodd"><path d="M285.828 224.324c-6.357-4.187-14.031-7.709-23.039-10.631-9.021-2.905-19.071-5.569-30.126-7.963-8.82-2.069-15.177-3.64-19.005-4.716a61 61 0 0 1-11.244-4.428c-3.692-1.881-6.58-4.104-8.649-6.667-2.034-2.529-3.041-5.499-3.058-9.021.017-5.622 2.975-10.408 9.161-14.543 6.151-4.069 14.284-6.156 24.469-6.156 11.008-.018 18.904 1.916 23.704 5.626 4.922 3.793 9.144 9.091 12.683 15.872 2.8 4.874 5.381 8.361 7.844 10.566 2.529 2.271 6.169 3.329 10.815 3.329 5.145.017 9.555-1.829 13.007-5.469 3.452-3.623 5.211-7.774 5.211-12.338 0-4.904-1.365-9.949-4.099-15.089-2.717-5.145-7.039-10.032-12.902-14.682-5.88-4.646-13.265-8.356-22.098-11.161-8.868-2.8-19.364-4.187-31.461-4.187-15.159 0-28.389 2.104-39.615 6.326-11.261 4.204-19.911 10.268-25.891 18.182-5.963 7.879-8.956 16.953-8.956 27.086 0 10.631 2.822 19.604 8.492 26.814 5.657 7.162 13.296 12.819 22.886 16.953 9.586 4.139 21.411 7.726 35.547 10.802 10.526 2.222 18.935 4.323 25.191 6.322 6.234 1.951 11.261 4.769 15.159 8.479 3.841 3.64 5.723 8.321 5.723 14.219 0 7.398-3.487 13.519-10.749 18.541-7.21 4.992-16.647 7.503-28.333 7.503-8.531 0-15.347-1.229-20.475-3.71-5.18-2.476-9.178-5.639-12.014-9.432-2.857-3.828-5.556-8.632-8.033-14.389-2.052-4.957-4.581-8.715-7.591-11.296-3.041-2.599-6.751-3.898-11.091-3.898-5.298 0-9.774 1.658-13.261 4.974-3.434 3.299-5.211 7.332-5.211 11.961 0 7.88 2.853 15.947 8.509 24.185 5.622 8.238 12.954 14.831 21.976 19.753 12.718 6.891 28.814 10.29 48.265 10.29 16.236 0 30.284-2.494 42.175-7.521 11.878-4.988 20.952-11.944 27.138-20.847 6.186-8.89 9.297-18.922 9.279-30.096 0-9.262-1.776-17.141-5.364-23.586-3.568-6.442-8.578-11.77-14.969-15.957z"/><path d="M0 0v455h455V0H0zm296.677 385c-17.019 0-32.896-4.834-46.379-13.143a145.335 145.335 0 0 1-22.816 1.781c-80.697 0-146.116-65.424-146.116-146.138 0-7.774.63-15.348 1.776-22.798C74.821 191.201 70 175.341 70 158.322 70 109.528 109.546 70 158.323 70c17.019 0 32.896 4.821 46.362 13.142a147.451 147.451 0 0 1 22.816-1.794c80.714 0 146.134 65.419 146.134 146.151 0 7.761-.613 15.365-1.794 22.798 8.339 13.484 13.16 29.361 13.16 46.384C385 345.454 345.454 385 296.677 385z"/></g></symbol><symbol viewBox="0 0 35 35" id="smartphone-call" xmlns="http://www.w3.org/2000/svg"><path d="M25.302 0H9.698a2.37 2.37 0 0 0-2.364 2.364v30.271A2.371 2.371 0 0 0 9.698 35h15.604a2.37 2.37 0 0 0 2.364-2.364V2.364A2.37 2.37 0 0 0 25.302 0zM15.004 1.704h4.992a.286.286 0 0 1 0 .573h-4.992a.286.286 0 1 1 0-.573zM17.5 33.818a1.182 1.182 0 1 1 0-2.364 1.182 1.182 0 0 1 0 2.364zm8.521-3.193H8.979V3.749h17.042v26.876z"/></symbol><symbol viewBox="0 0 189.473 189.473" id="telegram-logo" xmlns="http://www.w3.org/2000/svg"><path d="M152.531 179.476c-1.48 0-2.95-.438-4.211-1.293l-47.641-32.316-25.552 18.386a7.502 7.502 0 0 1-11.633-4.174l-12.83-48.622L4.821 93.928a7.501 7.501 0 0 1-.094-13.975l174.312-69.36a7.503 7.503 0 0 1 10.282 8.408L159.898 173.38a7.499 7.499 0 0 1-7.367 6.096zm-47.669-48.897l42.437 28.785L170.193 39.24l-82.687 79.566 17.156 11.638c.069.043.135.089.2.135zm-35.327-6.401l5.682 21.53 12.242-8.809-16.03-10.874a7.478 7.478 0 0 1-1.894-1.847zM28.136 86.782l31.478 12.035a7.5 7.5 0 0 1 4.573 5.092l3.992 15.129a7.504 7.504 0 0 1 2.259-4.624L149.227 38.6 28.136 86.782z"/></symbol><symbol viewBox="0 0 511.271 511.271" id="twitter" xmlns="http://www.w3.org/2000/svg"><path d="M508.342 94.243c-2.603-2.603-6.942-3.471-10.414-2.603l-17.356 6.075c10.414-12.149 17.356-25.166 21.695-37.315 1.736-4.339.868-7.81-1.736-10.414-2.603-2.603-6.942-3.471-10.414-1.736-24.298 10.414-45.125 19.092-62.481 24.298 0 .868-.868 0-1.736 0-13.885-7.81-47.729-25.166-72.027-25.166-61.614.868-111.078 52.936-111.078 116.285v3.471c-90.251-17.356-139.715-43.39-193.519-99.797L40.6 58.663l-5.207 10.414c-29.505 56.407-8.678 107.607 25.166 142.319-15.62-2.603-26.034-7.81-35.58-15.62-3.471-2.603-7.81-3.471-12.149-.868-3.471 1.736-5.207 6.942-4.339 11.281 12.149 40.786 42.522 73.763 75.498 93.722-15.62 0-28.637-1.736-41.654-10.414-3.471-1.736-8.678-1.736-12.149.868s-5.207 6.942-3.471 11.281c15.62 44.258 45.993 67.688 94.59 73.763-25.166 14.753-58.142 26.902-109.342 27.77-5.207 0-9.546 3.471-11.281 7.81-1.736 5.207 0 9.546 3.471 13.017 31.241 25.166 100.664 39.919 186.576 39.919 152.732 0 277.695-136.244 277.695-303.729v-2.603c19.092-9.546 34.712-27.77 42.522-52.936.867-3.472-.001-7.811-2.604-10.414zm-52.068 49.464l-5.207 1.736v14.753c0 157.939-117.153 286.373-260.339 286.373-78.97 0-131.905-13.017-160.542-26.902 59.878-4.339 94.59-23.431 121.492-44.258l21.695-15.62h-26.034c-49.464 0-79.837-13.885-97.193-46.861 15.62 5.207 32.108 5.207 50.332 4.339 6.942-.868 13.885-.868 20.827-.868l2.603-17.356c-32.976-9.546-72.027-39.051-91.119-78.969 17.356 7.81 36.447 9.546 53.803 9.546h26.902L91.8 213.999c-18.224-13.017-72.027-59.01-45.993-124.963 55.539 54.671 108.475 79.837 203.932 97.193l10.414 1.736v-24.298c0-53.803 41.654-98.061 93.722-98.929 19.959-.868 52.936 17.356 62.481 22.563 5.207 2.603 10.414 3.471 15.62 1.736 13.017-4.339 28.637-10.414 45.993-17.356-7.81 13.017-18.224 25.166-32.108 36.448-3.471 2.603-4.339 7.81-2.603 12.149 1.736 4.339 6.942 6.075 11.281 4.339l33.844-11.281c-6.075 11.28-15.621 24.297-32.109 30.371z"/></symbol><symbol viewBox="0 0 471.2 471.2" id="upload" xmlns="http://www.w3.org/2000/svg"><path d="M457.7 230.15c-7.5 0-13.5 6-13.5 13.5v122.8c0 33.4-27.2 60.5-60.5 60.5H87.5c-33.4 0-60.5-27.2-60.5-60.5v-124.8c0-7.5-6-13.5-13.5-13.5s-13.5 6-13.5 13.5v124.8c0 48.3 39.3 87.5 87.5 87.5h296.2c48.3 0 87.5-39.3 87.5-87.5v-122.8c0-7.4-6-13.5-13.5-13.5z"/><path d="M159.3 126.15l62.8-62.8v273.9c0 7.5 6 13.5 13.5 13.5s13.5-6 13.5-13.5V63.35l62.8 62.8c2.6 2.6 6.1 4 9.5 4 3.5 0 6.9-1.3 9.5-4 5.3-5.3 5.3-13.8 0-19.1l-85.8-85.8c-2.5-2.5-6-4-9.5-4-3.6 0-7 1.4-9.5 4l-85.8 85.8c-5.3 5.3-5.3 13.8 0 19.1 5.2 5.2 13.8 5.2 19 0z"/></symbol><symbol viewBox="0 0 487.6 487.6" id="user" xmlns="http://www.w3.org/2000/svg"><path d="M0 243.8c0 134.4 109.4 243.8 243.8 243.8s243.8-109.4 243.8-243.8S378.2 0 243.8 0 0 109.4 0 243.8zm101.9 167c36-24.3 66.9-39.9 76-44.4 5.5-2.7 9-8.2 9-14.4v-30.6c0-2.2-.6-4.3-1.7-6.2-6.2-10.5-10.5-23.1-12.7-37.4-.7-4.8-4.3-8.7-8.8-9.9-1.2-1.5-4.6-6.7-8.9-21.8-3.4-12-3.4-17.9-3.1-20.3 3.7 0 7.3-1.7 9.6-4.7 2.6-3.3 3.3-7.7 1.9-11.6-4.8-13.6-5.4-27.5-1.7-41.7 3.2-13.6 10.5-26.4 21.8-38 6.1-6.5 13.1-12.3 20.6-17 .1-.1.3-.2.4-.3 6.3-4.4 12.8-7.7 19.3-9.9h.1c5.5-1.9 11.2-2.9 17.3-3.2 16.4-1.4 31.1 1.6 44 9.3 14.2 7.8 19.9 18 19.9 18 2 3.8 5.8 6.3 10 6.6.1 0 5.5 1 10.4 7.4 5.8 7.7 14 27.7 4 76-1.1 5.5 1.6 11 6.5 13.4.4 1.9.9 7.7-2.9 21.2-3.4 12-6.2 17.7-7.9 20.3-2.1-.3-4.4 0-6.4.8-3.8 1.6-6.6 5.1-7.3 9.1-2 11.3-5.1 21.4-9.3 30-.8 1.7-1.2 3.5-1.2 5.3v35.4c0 6.2 3.4 11.7 9 14.4 9.2 4.5 40.1 20.2 76 44.4-38.3 32.6-87.8 52.3-141.9 52.3-54.2-.2-103.7-19.9-142-52.5zM243.8 24.5c120.9 0 219.3 98.4 219.3 219.3 0 57.8-22.5 110.5-59.2 149.7-34.3-23.5-64.8-39.8-78.6-46.7v-27.4c3.3-7.2 6-15.2 8-23.7 9.8-3.7 16.7-15.1 23.2-38 5.9-20.9 5.4-35.6-1.6-44 7.3-40.1 4-69.7-9.9-88-7.2-9.6-15.6-13.8-21.4-15.6-4.1-5.8-12.4-15.2-26.2-22.8-17.1-10.1-36.7-14.3-57.8-12.5-8 .4-15.9 1.9-23.6 4.5h-.1c-8.6 2.9-17 7.2-25.1 12.8-9.2 5.9-17.7 12.9-25 20.6-14.4 14.7-23.8 31.3-27.9 49-3.8 14.6-4.2 29.2-1.1 43.6-1.3 1-2.6 2.1-3.7 3.5-7.2 8.7-7.8 22.6-1.8 43.9 4 14.1 9.2 28.6 18.2 35.3 2.7 13.5 7 25.8 12.9 36.6v22.2c-13.7 6.9-44.3 23.2-78.6 46.7-36.7-39.2-59.3-91.9-59.3-149.7 0-120.9 98.4-219.3 219.3-219.3z"/></symbol><symbol viewBox="0 0 304.36 304.36" id="vk" xmlns="http://www.w3.org/2000/svg"><path d="M261.945 175.576c10.096 9.857 20.752 19.131 29.807 29.982 4 4.822 7.787 9.798 10.684 15.394 4.105 7.955.387 16.709-6.746 17.184l-44.34-.02c-11.436.949-20.559-3.655-28.23-11.474-6.139-6.253-11.824-12.908-17.727-19.372-2.42-2.642-4.953-5.128-7.979-7.093-6.053-3.929-11.307-2.726-14.766 3.587-3.523 6.421-4.322 13.531-4.668 20.687-.475 10.441-3.631 13.186-14.119 13.664-22.414 1.057-43.686-2.334-63.447-13.641-17.422-9.968-30.932-24.04-42.691-39.971-22.895-31.021-40.428-65.108-56.186-100.15C-2.01 76.458.584 72.22 9.295 72.07c14.465-.281 28.928-.261 43.41-.02 5.879.086 9.771 3.458 12.041 9.012 7.826 19.243 17.402 37.551 29.422 54.521 3.201 4.518 6.465 9.036 11.113 12.216 5.142 3.521 9.057 2.354 11.476-3.374 1.535-3.632 2.207-7.544 2.553-11.434 1.146-13.383 1.297-26.743-.713-40.079-1.234-8.323-5.922-13.711-14.227-15.286-4.238-.803-3.607-2.38-1.555-4.799 3.564-4.172 6.916-6.769 13.598-6.769h50.111c7.889 1.557 9.641 5.101 10.721 13.039l.043 55.663c-.086 3.073 1.535 12.192 7.07 14.226 4.43 1.448 7.35-2.096 10.008-4.905 11.998-12.734 20.561-27.783 28.211-43.366 3.395-6.852 6.314-13.968 9.143-21.078 2.096-5.276 5.385-7.872 11.328-7.757l48.229.043c1.43 0 2.877.021 4.262.258 8.127 1.385 10.354 4.881 7.844 12.817-3.955 12.451-11.65 22.827-19.174 33.251-8.043 11.129-16.645 21.877-24.621 33.072-7.328 10.223-6.746 15.376 2.357 24.255zm0 0" fill-rule="evenodd" clip-rule="evenodd"/></symbol></svg>