<svg xmlns="http://www.w3.org/2000/svg" viewBox="0 0 512.002 512.002"><path d="M481.001 105v37.5c0 19.799-13.5 37.5-32.701 43.2l-166.5 47.401c-6.299 1.8-10.8 7.8-10.8 14.399v34.501c0 8.399-6.599 20-15 20s-15-11.601-15-20V247.5c0-12.9 5.7-24.901 15-32.999 5.099-4.801 11.1-8.101 17.701-10.201l166.5-47.401c6.299-1.8 10.8-7.8 10.8-14.399V105c0-8.401-6.599-15-15-15h-30c-8.401 0-15-6.599-15-15s6.599-15 15-15h30c24.901 0 45 20.099 45 45z" fill="#aeadb3"/><path d="M481.001 105v37.5c0 19.799-13.5 37.5-32.701 43.2l-166.5 47.401c-6.299 1.8-10.8 7.8-10.8 14.399v34.501c0 8.399-6.599 20-15 20v-87.5c5.099-4.801 11.1-8.101 17.701-10.201l166.5-47.401c6.299-1.8 10.8-7.8 10.8-14.399V105c0-8.401-6.599-15-15-15h-30c-8.401 0-15-6.599-15-15s6.599-15 15-15h30c24.901 0 45 20.099 45 45z" fill="#8b8892"/><path d="M376.001 0h-300c-24.9 0-45 20.099-45 45v60c0 24.901 20.099 45 45 45h300c24.901 0 45-20.099 45-45V45c0-24.901-20.099-45-45-45z" fill="#00da7c"/><g fill="#00b77b"><path d="M121.001 255c-16.538 0-30-13.462-30-30v-75h60v75c0 16.538-13.462 30-30 30zM211.001 195c-16.538 0-30-13.462-30-30v-15h60v15c0 16.538-13.462 30-30 30zM421.001 45v60c0 24.901-20.099 45-45 45h-120V0h120c24.901 0 45 20.099 45 45z"/></g><path d="M316.001 267.001h-120c-8.401 0-15 6.899-15 15v35c0 4.199 1.5 7.798 4.501 10.8l24.3 24.3-16.8 83.399c-3.6 18.9 1.199 38.101 13.499 53.101 12.001 15 30.3 23.401 49.501 23.401s37.5-8.401 49.501-23.401c12.299-15 17.098-34.2 13.499-53.101l-16.801-83.4 24.3-24.3c3.001-3.001 4.501-6.601 4.501-10.8v-35c-.001-8.1-6.6-14.999-15.001-14.999z" fill="#57555c"/><path d="M331.001 282.001v35c0 4.199-1.5 7.798-4.501 10.8l-24.3 24.3L319 435.5c3.6 18.9-1.199 38.101-13.499 53.101-12.001 15-30.3 23.401-49.501 23.401v-245h60c8.402-.001 15.001 6.898 15.001 14.999z" fill="#3c3a41"/></svg>