<svg xmlns="http://www.w3.org/2000/svg" viewBox="0 0 512 512"><path d="M452.14 2.239l.011 102.884-57.585 39.84L337 105.103l-.05-102.884c-35.688 20.16-59.841 58.393-59.841 102.355 0 17.656 4.222 34.281 11.208 49.292L13.378 428.827c-17.845 17.784-17.816 46.696-.04 64.49 17.844 17.844 46.725 17.805 64.53-.011l278.265-278.273s24.919 6.927 38.393 6.936c64.9.05 117.474-52.584 117.474-117.444-.01-43.902-24.152-82.136-59.86-102.286z" fill="#a2a9af"/><circle cx="45.43" cy="461.237" r="12.133" fill="#fff"/><path fill="#4c5870" d="M396.184 379.84L242.858 226.515l-22.092 22.092 153.325 153.326 13.537 37.329 70.52 70.52 45.885-45.885-70.519-70.52z"/><path d="M214.385 289.304L16.334 91.263c-19.109-19.098-19.151-50.077-.011-69.217 19.086-19.066 50.099-19.097 69.175.042l198.063 198.041-69.176 69.175z" fill="#ee3840"/><g fill="#c21b23"><path d="M226.799 232.543c-4.738 4.738-12.42 4.738-17.158 0L42.27 65.172c-4.738-4.738-4.738-12.42 0-17.158s12.42-4.738 17.158 0L226.8 215.385c4.737 4.738 4.738 12.421-.001 17.158zM297.489 223.359l-79.874 79.874c-4.738 4.738-12.42 4.738-17.158 0-4.738-4.738-4.738-12.42 0-17.158l79.874-79.874c4.738-4.738 12.42-4.738 17.158 0 4.738 4.738 4.738 12.42 0 17.158z"/></g></svg>